Egyptienne-4.ufo
<glyph name="exclam" format="2">
  <advance width="179"/>
  <unicode hex="0021"/>
  <outline>
    <component base="period" xOffset="22" yOffset="2"/>
    <contour>
      <point x="22" y="240" type="line"/>
      <point x="162" y="240" type="line"/>
      <point x="162" y="700" type="line"/>
      <point x="22" y="700" type="line"/>
    </contour>
  </outline>
</glyph>
<glyph name="comma" format="2">
  <advance width="268"/>
  <unicode hex="002C"/>
  <outline>
    <contour>
      <point x="37" y="-108" type="line"/>
      <point x="38" y="-107"/>
      <point x="39" y="-106"/>
      <point x="40" y="-105" type="curve"/>
      <point x="66" y="-76"/>
      <point x="89" y="-47"/>
      <point x="117" y="-8" type="curve" smooth="yes"/>
      <point x="121" y="-3"/>
      <point x="120" y="0"/>
      <point x="120" y="5" type="curve"/>
      <point x="76" y="0"/>
      <point x="47" y="-2"/>
      <point x="0" y="0" type="curve"/>
      <point x="-31" y="-78"/>
      <point x="-63" y="-124"/>
      <point x="-125" y="-195" type="curve"/>
      <point x="-50" y="-195" type="line"/>
      <point x="-17" y="-165"/>
      <point x="8" y="-140"/>
      <point x="30" y="-116" type="curve"/>
      <point x="31" y="-115"/>
      <point x="32" y="-114"/>
      <point x="33" y="-113" type="curve"/>
    </contour>
  </outline>
</glyph>
<glyph name="period" format="2">
  <advance width="141"/>
  <unicode hex="002E"/>
  <outline>
    <contour>
      <point x="0" y="117" type="line"/>
      <point x="0" y="-3" type="line"/>
      <point x="140" y="-3" type="line"/>
      <point x="140" y="117" type="line"/>
    </contour>
  </outline>
</glyph>
<glyph name="zero" format="2">
  <advance width="572"/>
  <unicode hex="0030"/>
  <outline>
    <contour>
      <point x="270" y="0" type="curve" smooth="yes"/>
      <point x="465" y="0"/>
      <point x="540" y="118"/>
      <point x="540" y="350" type="curve" smooth="yes"/>
      <point x="540" y="582"/>
      <point x="465" y="700"/>
      <point x="270" y="700" type="curve" smooth="yes"/>
      <point x="75" y="700"/>
      <point x="0" y="582"/>
      <point x="0" y="350" type="curve" smooth="yes"/>
      <point x="0" y="118"/>
      <point x="75" y="0"/>
    </contour>
    <contour>
      <point x="340" y="155" type="line" smooth="yes"/>
      <point x="340" y="116"/>
      <point x="309" y="85"/>
      <point x="270" y="85" type="curve" smooth="yes"/>
      <point x="231" y="85"/>
      <point x="200" y="116"/>
      <point x="200" y="155" type="curve" smooth="yes"/>
      <point x="200" y="545" type="line" smooth="yes"/>
      <point x="200" y="584"/>
      <point x="231" y="615"/>
      <point x="270" y="615" type="curve" smooth="yes"/>
      <point x="309" y="615"/>
      <point x="340" y="584"/>
      <point x="340" y="545" type="curve" smooth="yes"/>
    </contour>
  </outline>
  <guideline angle="90" x="270" y="0"/>
</glyph>
<glyph name="one" format="2">
  <advance width="572"/>
  <unicode hex="0031"/>
  <outline>
    <contour>
      <point x="25" y="70" type="line"/>
      <point x="25" y="0" type="line"/>
      <point x="340" y="0" type="line"/>
      <point x="340" y="70" type="line"/>
      <point x="275" y="70" type="line"/>
      <point x="275" y="700" type="line"/>
      <point x="130" y="700" type="line"/>
      <point x="120" y="675"/>
      <point x="110" y="654"/>
      <point x="100" y="635" type="curve" smooth="yes"/>
      <point x="72" y="581"/>
      <point x="43" y="545"/>
      <point x="0" y="500" type="curve"/>
      <point x="0" y="370" type="line"/>
      <point x="46" y="415"/>
      <point x="78" y="444"/>
      <point x="100" y="481" type="curve"/>
      <point x="100" y="70" type="line"/>
    </contour>
  </outline>
</glyph>
<glyph name="two" format="2">
  <advance width="543"/>
  <unicode hex="0032"/>
  <outline>
    <contour>
      <point x="0" y="80" type="line"/>
      <point x="286" y="271"/>
      <point x="345" y="425"/>
      <point x="345" y="510" type="curve" smooth="yes"/>
      <point x="345" y="582"/>
      <point x="316" y="617"/>
      <point x="265" y="617" type="curve" smooth="yes"/>
      <point x="185" y="617"/>
      <point x="185" y="537"/>
      <point x="185" y="500" type="curve" smooth="yes"/>
      <point x="185" y="473"/>
      <point x="190" y="454"/>
      <point x="200" y="425" type="curve"/>
      <point x="20" y="425" type="line"/>
      <point x="11" y="454"/>
      <point x="5" y="470"/>
      <point x="5" y="500" type="curve" smooth="yes"/>
      <point x="5" y="670"/>
      <point x="135" y="700"/>
      <point x="265" y="700" type="curve" smooth="yes"/>
      <point x="455" y="700"/>
      <point x="535" y="599"/>
      <point x="535" y="500" type="curve" smooth="yes"/>
      <point x="535" y="260"/>
      <point x="215" y="129"/>
      <point x="135" y="80" type="curve"/>
      <point x="465" y="80" type="line"/>
      <point x="465" y="240" type="line"/>
      <point x="545" y="240" type="line"/>
      <point x="545" y="0" type="line"/>
      <point x="0" y="0" type="line"/>
    </contour>
  </outline>
</glyph>
<glyph name="three" format="2">
  <advance width="572"/>
  <unicode hex="0033"/>
  <outline>
    <contour>
      <point x="190" y="260" type="line"/>
      <point x="175" y="188"/>
      <point x="174" y="80"/>
      <point x="270" y="80" type="curve" smooth="yes"/>
      <point x="337" y="80"/>
      <point x="360" y="132"/>
      <point x="360" y="180" type="curve" smooth="yes"/>
      <point x="360" y="278"/>
      <point x="296" y="292"/>
      <point x="270" y="300" type="curve" smooth="yes"/>
      <point x="247" y="307"/>
      <point x="187" y="305"/>
      <point x="130" y="305" type="curve"/>
      <point x="130" y="400" type="line"/>
      <point x="255" y="400"/>
      <point x="130" y="400"/>
      <point x="255" y="400" type="curve" smooth="yes"/>
      <point x="304" y="400"/>
      <point x="356" y="430"/>
      <point x="356" y="530" type="curve" smooth="yes"/>
      <point x="356" y="579"/>
      <point x="319" y="620"/>
      <point x="270" y="620" type="curve" smooth="yes"/>
      <point x="204" y="620"/>
      <point x="185" y="579"/>
      <point x="185" y="530" type="curve" smooth="yes"/>
      <point x="185" y="505"/>
      <point x="188" y="488"/>
      <point x="195" y="465" type="curve"/>
      <point x="40" y="465" type="line"/>
      <point x="30" y="492"/>
      <point x="30" y="505"/>
      <point x="30" y="530" type="curve" smooth="yes"/>
      <point x="30" y="700"/>
      <point x="179" y="700"/>
      <point x="270" y="700" type="curve" smooth="yes"/>
      <point x="470" y="700"/>
      <point x="530" y="608"/>
      <point x="530" y="530" type="curve" smooth="yes"/>
      <point x="530" y="422"/>
      <point x="470" y="350"/>
      <point x="400" y="350" type="curve"/>
      <point x="470" y="350"/>
      <point x="540" y="288"/>
      <point x="540" y="190" type="curve" smooth="yes"/>
      <point x="540" y="41"/>
      <point x="431" y="0"/>
      <point x="270" y="0" type="curve" smooth="yes"/>
      <point x="30" y="0"/>
      <point x="0" y="134"/>
      <point x="0" y="190" type="curve" smooth="yes"/>
      <point x="0" y="227"/>
      <point x="2" y="236"/>
      <point x="10" y="260" type="curve"/>
    </contour>
  </outline>
</glyph>
<glyph name="four" format="2">
  <advance width="572"/>
  <unicode hex="0034"/>
  <outline>
    <contour>
      <point x="0" y="180" type="line"/>
      <point x="310" y="180" type="line"/>
      <point x="310" y="70" type="line"/>
      <point x="240" y="70" type="line"/>
      <point x="240" y="0" type="line"/>
      <point x="540" y="0" type="line"/>
      <point x="540" y="70" type="line"/>
      <point x="470" y="70" type="line"/>
      <point x="470" y="180" type="line"/>
      <point x="540" y="180" type="line"/>
      <point x="540" y="300" type="line"/>
      <point x="470" y="300" type="line"/>
      <point x="470" y="480" type="line"/>
      <point x="413" y="432"/>
      <point x="392" y="416"/>
      <point x="310" y="385" type="curve"/>
      <point x="310" y="300" type="line"/>
      <point x="150" y="300" type="line"/>
      <point x="215" y="360"/>
      <point x="265" y="410"/>
      <point x="310" y="459" type="curve" smooth="yes"/>
      <point x="312" y="461"/>
      <point x="313" y="462"/>
      <point x="315" y="464" type="curve" smooth="yes"/>
      <point x="324" y="475" type="line" smooth="yes"/>
      <point x="326" y="477"/>
      <point x="328" y="478"/>
      <point x="329" y="480" type="curve" smooth="yes"/>
      <point x="381" y="538"/>
      <point x="427" y="597"/>
      <point x="483" y="674" type="curve" smooth="yes"/>
      <point x="491" y="685"/>
      <point x="490" y="691"/>
      <point x="490" y="700" type="curve"/>
      <point x="402" y="690"/>
      <point x="344" y="687"/>
      <point x="250" y="690" type="curve"/>
      <point x="187" y="535"/>
      <point x="124" y="442"/>
      <point x="0" y="300" type="curve"/>
    </contour>
  </outline>
</glyph>
<glyph name="five" format="2">
  <advance width="572"/>
  <unicode hex="0035"/>
  <outline>
    <contour>
      <point x="20" y="261" type="line"/>
      <point x="13" y="243"/>
      <point x="16" y="228"/>
      <point x="0" y="205" type="curve"/>
      <point x="0" y="184"/>
      <point x="-5" y="159"/>
      <point x="0" y="140" type="curve" smooth="yes"/>
      <point x="15" y="81"/>
      <point x="41" y="54"/>
      <point x="114" y="22" type="curve" smooth="yes"/>
      <point x="192" y="-12"/>
      <point x="406" y="6"/>
      <point x="440" y="22" type="curve"/>
      <point x="466" y="36"/>
      <point x="536" y="68"/>
      <point x="538" y="227" type="curve"/>
      <point x="538" y="412"/>
      <point x="359" y="466"/>
      <point x="252" y="443" type="curve" smooth="yes"/>
      <point x="174" y="426"/>
      <point x="176" y="418"/>
      <point x="140" y="399" type="curve"/>
      <point x="140" y="609" type="line"/>
      <point x="154" y="593"/>
      <point x="164" y="562"/>
      <point x="239" y="544" type="curve" smooth="yes"/>
      <point x="369" y="512"/>
      <point x="444" y="548"/>
      <point x="466" y="579" type="curve"/>
      <point x="484" y="597"/>
      <point x="505" y="640"/>
      <point x="510" y="700" type="curve"/>
      <point x="352" y="700" type="line"/>
      <point x="343" y="678"/>
      <point x="337" y="646"/>
      <point x="266" y="650" type="curve" smooth="yes"/>
      <point x="178" y="654"/>
      <point x="164" y="681"/>
      <point x="140" y="700" type="curve"/>
      <point x="30" y="700" type="line"/>
      <point x="30" y="310" type="line"/>
      <point x="140" y="310" type="line"/>
      <point x="178" y="344"/>
      <point x="217" y="350"/>
      <point x="239" y="352" type="curve" smooth="yes"/>
      <point x="306" y="358"/>
      <point x="338" y="298"/>
      <point x="342" y="234" type="curve"/>
      <point x="343" y="171"/>
      <point x="330" y="91"/>
      <point x="270" y="83" type="curve" smooth="yes"/>
      <point x="175" y="70"/>
      <point x="176" y="191"/>
      <point x="176" y="261" type="curve"/>
    </contour>
  </outline>
</glyph>
<glyph name="six" format="2">
  <advance width="561"/>
  <unicode hex="0036"/>
  <outline>
    <contour>
      <point x="197" y="471" type="line"/>
      <point x="200" y="521"/>
      <point x="207" y="562"/>
      <point x="209" y="569" type="curve"/>
      <point x="209" y="570"/>
      <point x="220" y="607"/>
      <point x="253" y="623" type="curve"/>
      <point x="293" y="631"/>
      <point x="333" y="622"/>
      <point x="355" y="591" type="curve" smooth="yes"/>
      <point x="369" y="571"/>
      <point x="378" y="539"/>
      <point x="372" y="486" type="curve"/>
      <point x="366" y="459"/>
      <point x="359" y="452"/>
      <point x="372" y="452" type="curve"/>
      <point x="386" y="453"/>
      <point x="422" y="461"/>
      <point x="462" y="461" type="curve" smooth="yes"/>
      <point x="490" y="461"/>
      <point x="507" y="458"/>
      <point x="527" y="454" type="curve" smooth="yes"/>
      <point x="534" y="453"/>
      <point x="537" y="455"/>
      <point x="537" y="462" type="curve"/>
      <point x="539" y="507"/>
      <point x="544" y="547"/>
      <point x="524" y="589" type="curve" smooth="yes"/>
      <point x="486" y="667"/>
      <point x="378" y="714"/>
      <point x="259" y="705" type="curve" smooth="yes"/>
      <point x="214" y="702"/>
      <point x="107" y="702"/>
      <point x="49" y="593" type="curve" smooth="yes"/>
      <point x="8" y="515"/>
      <point x="5" y="405"/>
      <point x="4" y="328" type="curve"/>
      <point x="10" y="232"/>
      <point x="20" y="131"/>
      <point x="91" y="66" type="curve" smooth="yes"/>
      <point x="143" y="19"/>
      <point x="216" y="1"/>
      <point x="291" y="4" type="curve"/>
      <point x="328" y="8"/>
      <point x="471" y="17"/>
      <point x="529" y="121" type="curve" smooth="yes"/>
      <point x="564" y="185"/>
      <point x="562" y="259"/>
      <point x="522" y="316" type="curve" smooth="yes"/>
      <point x="463" y="399"/>
      <point x="339" y="417"/>
      <point x="270" y="386" type="curve"/>
      <point x="245" y="378"/>
      <point x="231" y="370"/>
      <point x="214" y="356" type="curve" smooth="yes"/>
      <point x="191" y="338"/>
      <point x="200" y="351"/>
      <point x="197" y="356" type="curve"/>
    </contour>
    <contour>
      <point x="279" y="82" type="curve" smooth="yes"/>
      <point x="221" y="82"/>
      <point x="195" y="131"/>
      <point x="195" y="192" type="curve" smooth="yes"/>
      <point x="195" y="252"/>
      <point x="223" y="301"/>
      <point x="279" y="301" type="curve" smooth="yes"/>
      <point x="324" y="301"/>
      <point x="363" y="273"/>
      <point x="363" y="192" type="curve" smooth="yes"/>
      <point x="363" y="131"/>
      <point x="335" y="82"/>
    </contour>
  </outline>
</glyph>
<glyph name="seven" format="2">
  <advance width="561"/>
  <unicode hex="0037"/>
  <outline>
    <contour>
      <point x="100" y="445" type="line"/>
      <point x="20" y="445" type="line" smooth="yes"/>
      <point x="17" y="445"/>
      <point x="15" y="447"/>
      <point x="15" y="450" type="curve" smooth="yes"/>
      <point x="10" y="700" type="line" smooth="yes"/>
      <point x="10" y="703"/>
      <point x="12" y="705"/>
      <point x="15" y="705" type="curve"/>
      <point x="97" y="700"/>
      <point x="204" y="682"/>
      <point x="287" y="683" type="curve" smooth="yes"/>
      <point x="394" y="685"/>
      <point x="517" y="702"/>
      <point x="545" y="705" type="curve"/>
      <point x="548" y="705"/>
      <point x="550" y="704"/>
      <point x="550" y="700" type="curve"/>
      <point x="555" y="585" type="line"/>
      <point x="493" y="508"/>
      <point x="454" y="402"/>
      <point x="422" y="340" type="curve" smooth="yes"/>
      <point x="389" y="276"/>
      <point x="315" y="44"/>
      <point x="315" y="5" type="curve"/>
      <point x="281" y="8"/>
      <point x="236" y="14"/>
      <point x="212" y="14" type="curve" smooth="yes"/>
      <point x="190" y="14"/>
      <point x="132" y="14"/>
      <point x="90" y="7" type="curve" smooth="yes"/>
      <point x="83" y="6"/>
      <point x="81" y="8"/>
      <point x="84" y="14" type="curve" smooth="yes"/>
      <point x="121" y="106"/>
      <point x="163" y="204"/>
      <point x="205" y="275" type="curve" smooth="yes"/>
      <point x="248" y="348"/>
      <point x="358" y="500"/>
      <point x="435" y="580" type="curve"/>
      <point x="385" y="569"/>
      <point x="361" y="564"/>
      <point x="272" y="564" type="curve" smooth="yes"/>
      <point x="185" y="564"/>
      <point x="151" y="573"/>
      <point x="100" y="580" type="curve"/>
    </contour>
  </outline>
</glyph>
<glyph name="eight" format="2">
  <advance width="572"/>
  <unicode hex="0038"/>
  <outline>
    <contour>
      <point x="285" y="6" type="curve" smooth="yes"/>
      <point x="492" y="6"/>
      <point x="557" y="104"/>
      <point x="553" y="197" type="curve" smooth="yes"/>
      <point x="549" y="302"/>
      <point x="475" y="381"/>
      <point x="283" y="381" type="curve" smooth="yes"/>
      <point x="88" y="381"/>
      <point x="19" y="302"/>
      <point x="17" y="197" type="curve" smooth="yes"/>
      <point x="15" y="103"/>
      <point x="77" y="6"/>
    </contour>
    <contour>
      <point x="280" y="92" type="curve" smooth="yes"/>
      <point x="244" y="92"/>
      <point x="230" y="103"/>
      <point x="213" y="127" type="curve" smooth="yes"/>
      <point x="202" y="143"/>
      <point x="201" y="167"/>
      <point x="201" y="186" type="curve" smooth="yes"/>
      <point x="201" y="213"/>
      <point x="200" y="244"/>
      <point x="213" y="268" type="curve" smooth="yes"/>
      <point x="224" y="288"/>
      <point x="244" y="306"/>
      <point x="267" y="309" type="curve" smooth="yes"/>
      <point x="292" y="312"/>
      <point x="322" y="301"/>
      <point x="336" y="281" type="curve" smooth="yes"/>
      <point x="355" y="254"/>
      <point x="354" y="217"/>
      <point x="354" y="184" type="curve" smooth="yes"/>
      <point x="354" y="162"/>
      <point x="351" y="138"/>
      <point x="337" y="121" type="curve" smooth="yes"/>
      <point x="324" y="104"/>
      <point x="314" y="92"/>
    </contour>
    <contour>
      <point x="277" y="334" type="curve" smooth="yes"/>
      <point x="484" y="334"/>
      <point x="549" y="432"/>
      <point x="545" y="525" type="curve" smooth="yes"/>
      <point x="542" y="629"/>
      <point x="467" y="709"/>
      <point x="275" y="709" type="curve" smooth="yes"/>
      <point x="80" y="709"/>
      <point x="11" y="629"/>
      <point x="9" y="525" type="curve" smooth="yes"/>
      <point x="7" y="431"/>
      <point x="69" y="334"/>
    </contour>
    <contour>
      <point x="277" y="334" type="curve" smooth="yes"/>
      <point x="484" y="334"/>
      <point x="549" y="432"/>
      <point x="545" y="525" type="curve" smooth="yes"/>
      <point x="542" y="629"/>
      <point x="467" y="709"/>
      <point x="275" y="709" type="curve" smooth="yes"/>
      <point x="80" y="709"/>
      <point x="11" y="629"/>
      <point x="9" y="525" type="curve" smooth="yes"/>
      <point x="7" y="431"/>
      <point x="69" y="334"/>
    </contour>
    <contour>
      <point x="212" y="442" type="curve" smooth="yes"/>
      <point x="201" y="463"/>
      <point x="203" y="488"/>
      <point x="203" y="509" type="curve" smooth="yes"/>
      <point x="203" y="533"/>
      <point x="203" y="559"/>
      <point x="214" y="582" type="curve" smooth="yes"/>
      <point x="221" y="596"/>
      <point x="232" y="613"/>
      <point x="255" y="621" type="curve" smooth="yes"/>
      <point x="270" y="626"/>
      <point x="292" y="621"/>
      <point x="305" y="615" type="curve"/>
      <point x="322" y="609"/>
      <point x="335" y="596"/>
      <point x="340" y="585" type="curve"/>
      <point x="350" y="567"/>
      <point x="350" y="544"/>
      <point x="350" y="525" type="curve"/>
      <point x="352" y="500"/>
      <point x="353" y="474"/>
      <point x="344" y="450" type="curve" smooth="yes"/>
      <point x="339" y="435"/>
      <point x="327" y="421"/>
      <point x="307" y="412" type="curve" smooth="yes"/>
      <point x="290" y="405"/>
      <point x="270" y="403"/>
      <point x="253" y="408" type="curve"/>
      <point x="232" y="416"/>
      <point x="219" y="428"/>
    </contour>
    <contour>
      <point x="212" y="442" type="curve" smooth="yes"/>
      <point x="201" y="463"/>
      <point x="203" y="488"/>
      <point x="203" y="509" type="curve" smooth="yes"/>
      <point x="203" y="533"/>
      <point x="203" y="559"/>
      <point x="214" y="582" type="curve" smooth="yes"/>
      <point x="221" y="596"/>
      <point x="232" y="613"/>
      <point x="255" y="621" type="curve" smooth="yes"/>
      <point x="270" y="626"/>
      <point x="292" y="621"/>
      <point x="305" y="615" type="curve"/>
      <point x="322" y="609"/>
      <point x="335" y="596"/>
      <point x="340" y="585" type="curve"/>
      <point x="350" y="567"/>
      <point x="350" y="544"/>
      <point x="350" y="525" type="curve"/>
      <point x="352" y="500"/>
      <point x="353" y="474"/>
      <point x="344" y="450" type="curve" smooth="yes"/>
      <point x="339" y="435"/>
      <point x="327" y="421"/>
      <point x="307" y="412" type="curve" smooth="yes"/>
      <point x="290" y="405"/>
      <point x="270" y="403"/>
      <point x="253" y="408" type="curve"/>
      <point x="232" y="416"/>
      <point x="219" y="428"/>
    </contour>
  </outline>
</glyph>
<glyph name="nine" format="2">
  <advance width="576"/>
  <unicode hex="0039"/>
  <outline>
    <contour>
      <point x="555" y="417" type="line" smooth="yes"/>
      <point x="555" y="319"/>
      <point x="562" y="211"/>
      <point x="512" y="122" type="curve" smooth="yes"/>
      <point x="469" y="46"/>
      <point x="397" y="12"/>
      <point x="279" y="12" type="curve" smooth="yes"/>
      <point x="215" y="12"/>
      <point x="168" y="18"/>
      <point x="122" y="43" type="curve" smooth="yes"/>
      <point x="81" y="65"/>
      <point x="62" y="85"/>
      <point x="40" y="134" type="curve" smooth="yes"/>
      <point x="38" y="139"/>
      <point x="27" y="169"/>
      <point x="27" y="173" type="curve"/>
      <point x="24" y="200"/>
      <point x="18" y="231"/>
      <point x="22" y="261" type="curve"/>
      <point x="56" y="262"/>
      <point x="57" y="262"/>
      <point x="76" y="262" type="curve" smooth="yes"/>
      <point x="113" y="262"/>
      <point x="144" y="263"/>
      <point x="183" y="263" type="curve"/>
      <point x="183" y="216"/>
      <point x="193" y="91"/>
      <point x="280" y="91" type="curve" smooth="yes"/>
      <point x="340" y="91"/>
      <point x="364" y="162"/>
      <point x="363" y="267" type="curve" smooth="yes"/>
      <point x="363" y="298"/>
      <point x="364" y="334"/>
      <point x="363" y="370" type="curve"/>
      <point x="323" y="340"/>
      <point x="265" y="321"/>
      <point x="206" y="321" type="curve" smooth="yes"/>
      <point x="89" y="321"/>
      <point x="8" y="398"/>
      <point x="14" y="518" type="curve" smooth="yes"/>
      <point x="21" y="653"/>
      <point x="90" y="714"/>
      <point x="292" y="710" type="curve" smooth="yes"/>
      <point x="397" y="708"/>
      <point x="412" y="688"/>
      <point x="449" y="665" type="curve" smooth="yes"/>
      <point x="501" y="633"/>
      <point x="542" y="575"/>
      <point x="555" y="424" type="curve"/>
    </contour>
    <contour>
      <point x="209" y="462" type="curve" smooth="yes"/>
      <point x="220" y="441"/>
      <point x="239" y="424"/>
      <point x="265" y="421" type="curve" smooth="yes"/>
      <point x="274" y="420"/>
      <point x="300" y="415"/>
      <point x="321" y="432" type="curve" smooth="yes"/>
      <point x="347" y="453"/>
      <point x="349" y="493"/>
      <point x="354" y="518" type="curve" smooth="yes"/>
      <point x="362" y="557"/>
      <point x="354" y="587"/>
      <point x="337" y="605" type="curve" smooth="yes"/>
      <point x="311" y="633"/>
      <point x="268" y="629"/>
      <point x="253" y="626" type="curve" smooth="yes"/>
      <point x="231" y="622"/>
      <point x="228" y="613"/>
      <point x="217" y="599" type="curve" smooth="yes"/>
      <point x="206" y="584"/>
      <point x="201" y="564"/>
      <point x="198" y="546" type="curve" smooth="yes"/>
      <point x="195" y="522"/>
      <point x="194" y="490"/>
    </contour>
  </outline>
</glyph>
<glyph name="colon" format="2">
  <advance width="268"/>
  <unicode hex="003A"/>
  <outline>
    <contour>
      <point x="45" y="103" type="line"/>
      <point x="45" y="-17" type="line"/>
      <point x="185" y="-17" type="line"/>
      <point x="185" y="103" type="line"/>
    </contour>
    <contour>
      <point x="45" y="103" type="line"/>
      <point x="45" y="-17" type="line"/>
      <point x="185" y="-17" type="line"/>
      <point x="185" y="103" type="line"/>
    </contour>
    <contour>
      <point x="45" y="103" type="line"/>
      <point x="45" y="-17" type="line"/>
      <point x="185" y="-17" type="line"/>
      <point x="185" y="103" type="line"/>
    </contour>
    <contour>
      <point x="45" y="103" type="line"/>
      <point x="45" y="-17" type="line"/>
      <point x="185" y="-17" type="line"/>
      <point x="185" y="103" type="line"/>
    </contour>
    <contour>
      <point x="45" y="549" type="line"/>
      <point x="45" y="429" type="line"/>
      <point x="185" y="429" type="line"/>
      <point x="185" y="549" type="line"/>
    </contour>
    <contour>
      <point x="45" y="549" type="line"/>
      <point x="45" y="429" type="line"/>
      <point x="185" y="429" type="line"/>
      <point x="185" y="549" type="line"/>
    </contour>
    <contour>
      <point x="45" y="549" type="line"/>
      <point x="45" y="429" type="line"/>
      <point x="185" y="429" type="line"/>
      <point x="185" y="549" type="line"/>
    </contour>
    <contour>
      <point x="45" y="549" type="line"/>
      <point x="45" y="429" type="line"/>
      <point x="185" y="429" type="line"/>
      <point x="185" y="549" type="line"/>
    </contour>
  </outline>
</glyph>
<glyph name="less" format="2">
  <advance width="572"/>
  <unicode hex="003C"/>
  <outline>
    <contour>
      <point x="92" y="343" type="line"/>
      <point x="92" y="472" type="line"/>
      <point x="542" y="598" type="line"/>
      <point x="542" y="534" type="line"/>
      <point x="206" y="440" type="line"/>
      <point x="206" y="370" type="line"/>
      <point x="206" y="440" type="line"/>
      <point x="206" y="370" type="line"/>
      <point x="542" y="279" type="line"/>
      <point x="542" y="217" type="line"/>
    </contour>
  </outline>
</glyph>
<glyph name="at" format="2">
  <advance width="899"/>
  <unicode hex="0040"/>
  <outline>
    <contour>
      <point x="301" y="378" type="line"/>
      <point x="335" y="483"/>
      <point x="428" y="518"/>
      <point x="522" y="518" type="curve" smooth="yes"/>
      <point x="597" y="518"/>
      <point x="662" y="470"/>
      <point x="640" y="387" type="curve" smooth="yes"/>
      <point x="587" y="190" type="line" smooth="yes"/>
      <point x="579" y="157"/>
      <point x="608" y="133"/>
      <point x="639" y="133" type="curve" smooth="yes"/>
      <point x="678" y="133"/>
      <point x="701" y="160"/>
      <point x="710" y="195" type="curve" smooth="yes"/>
      <point x="757" y="371"/>
      <point x="652" y="634"/>
      <point x="460" y="634" type="curve" smooth="yes"/>
      <point x="333" y="634"/>
      <point x="246" y="515"/>
      <point x="215" y="403" type="curve" smooth="yes"/>
      <point x="204" y="361"/>
      <point x="199" y="319"/>
      <point x="199" y="279" type="curve" smooth="yes"/>
      <point x="201" y="128"/>
      <point x="284" y="-64"/>
      <point x="461" y="-64" type="curve" smooth="yes"/>
      <point x="478" y="-64"/>
      <point x="495" y="-62"/>
      <point x="513" y="-57" type="curve" smooth="yes"/>
      <point x="578" y="-40"/>
      <point x="637" y="16"/>
      <point x="669" y="71" type="curve"/>
      <point x="714" y="68" type="line" smooth="yes"/>
      <point x="739" y="66"/>
      <point x="765" y="69"/>
      <point x="792" y="71" type="curve"/>
      <point x="792" y="67" type="line"/>
      <point x="788" y="59"/>
      <point x="735" y="5"/>
      <point x="725" y="-6" type="curve" smooth="yes"/>
      <point x="643" y="-99"/>
      <point x="553" y="-143"/>
      <point x="460" y="-143" type="curve" smooth="yes"/>
      <point x="191" y="-143"/>
      <point x="29" y="144"/>
      <point x="98" y="403" type="curve" smooth="yes"/>
      <point x="143" y="572"/>
      <point x="287" y="700"/>
      <point x="461" y="700" type="curve" smooth="yes"/>
      <point x="694" y="700"/>
      <point x="804" y="487"/>
      <point x="805" y="279" type="curve" smooth="yes"/>
      <point x="805" y="261"/>
      <point x="803" y="243"/>
      <point x="798" y="225" type="curve" smooth="yes"/>
      <point x="770" y="123"/>
      <point x="691" y="77"/>
      <point x="595" y="77" type="curve" smooth="yes"/>
      <point x="544" y="77"/>
      <point x="504" y="96"/>
      <point x="483" y="138" type="curve"/>
      <point x="455" y="104"/>
      <point x="398" y="90"/>
      <point x="362" y="90" type="curve" smooth="yes"/>
      <point x="274" y="90"/>
      <point x="229" y="132"/>
      <point x="254" y="224" type="curve" smooth="yes"/>
      <point x="284" y="337"/>
      <point x="405" y="342"/>
      <point x="490" y="342" type="curve" smooth="yes"/>
      <point x="513" y="342"/>
      <point x="519" y="363"/>
      <point x="524" y="381" type="curve" smooth="yes"/>
      <point x="534" y="417"/>
      <point x="546" y="468"/>
      <point x="497" y="468" type="curve" smooth="yes"/>
      <point x="451" y="468"/>
      <point x="424" y="414"/>
      <point x="415" y="378" type="curve"/>
    </contour>
    <contour>
      <point x="396" y="135" type="curve" smooth="yes"/>
      <point x="446" y="135"/>
      <point x="473" y="190"/>
      <point x="484" y="230" type="curve" smooth="yes"/>
      <point x="501" y="295" type="line"/>
      <point x="436" y="293"/>
      <point x="384" y="289"/>
      <point x="363" y="209" type="curve" smooth="yes"/>
      <point x="354" y="176"/>
      <point x="357" y="135"/>
    </contour>
  </outline>
</glyph>
<glyph name="A" format="2">
  <advance width="698"/>
  <unicode hex="0041"/>
  <outline>
    <contour>
      <point x="0" y="0" type="line"/>
      <point x="0" y="80" type="line"/>
      <point x="63" y="80" type="line"/>
      <point x="124" y="290"/>
      <point x="239" y="700"/>
      <point x="239" y="700" type="curve"/>
      <point x="428" y="700" type="line"/>
      <point x="607" y="80" type="line"/>
      <point x="674" y="80" type="line"/>
      <point x="674" y="0" type="line"/>
      <point x="337" y="0" type="line"/>
      <point x="337" y="80" type="line"/>
      <point x="424" y="80" type="line"/>
      <point x="390" y="181" type="line"/>
      <point x="189" y="181" type="line"/>
      <point x="159" y="80" type="line"/>
      <point x="238" y="80" type="line"/>
      <point x="238" y="0" type="line"/>
    </contour>
    <contour>
      <point x="210" y="266" type="line"/>
      <point x="365" y="266" type="line"/>
      <point x="285" y="536" type="line"/>
    </contour>
  </outline>
</glyph>
<glyph name="B" format="2">
  <advance width="644"/>
  <unicode hex="0042"/>
  <outline>
    <contour>
      <point x="0" y="80" type="line"/>
      <point x="58" y="80" type="line"/>
      <point x="58" y="620" type="line"/>
      <point x="0" y="620" type="line"/>
      <point x="0" y="700" type="line"/>
      <point x="464" y="700" type="line" smooth="yes"/>
      <point x="540" y="700"/>
      <point x="595" y="616"/>
      <point x="595" y="522" type="curve" smooth="yes"/>
      <point x="595" y="441"/>
      <point x="541" y="371"/>
      <point x="457" y="361" type="curve"/>
      <point x="544" y="350"/>
      <point x="600" y="297"/>
      <point x="600" y="184" type="curve" smooth="yes"/>
      <point x="600" y="41"/>
      <point x="562" y="0"/>
      <point x="359" y="0" type="curve" smooth="yes"/>
      <point x="0" y="0" type="line"/>
    </contour>
    <contour>
      <point x="250" y="65" type="line"/>
      <point x="319" y="65" type="line" smooth="yes"/>
      <point x="336" y="65"/>
      <point x="366" y="73"/>
      <point x="388" y="92" type="curve" smooth="yes"/>
      <point x="418" y="119"/>
      <point x="416" y="154"/>
      <point x="416" y="154" type="curve"/>
      <point x="416" y="204"/>
      <point x="418" y="251"/>
      <point x="385" y="280" type="curve" smooth="yes"/>
      <point x="349" y="311"/>
      <point x="286" y="306"/>
      <point x="250" y="306" type="curve"/>
    </contour>
    <contour>
      <point x="246" y="406" type="line"/>
      <point x="335" y="406" type="line" smooth="yes"/>
      <point x="373" y="406"/>
      <point x="408" y="465"/>
      <point x="408" y="528" type="curve" smooth="yes"/>
      <point x="408" y="593"/>
      <point x="362" y="640"/>
      <point x="298" y="640" type="curve" smooth="yes"/>
      <point x="290" y="640"/>
      <point x="275" y="639"/>
      <point x="247" y="638" type="curve"/>
    </contour>
  </outline>
</glyph>
<glyph name="C" format="2">
  <advance width="568"/>
  <unicode hex="0043"/>
  <outline>
    <contour>
      <point x="469" y="0" type="line"/>
      <point x="469" y="53" type="line"/>
      <point x="410" y="16"/>
      <point x="346" y="-1"/>
      <point x="289" y="-1" type="curve" smooth="yes"/>
      <point x="212" y="-1"/>
      <point x="133" y="30"/>
      <point x="85" y="77" type="curve" smooth="yes"/>
      <point x="14" y="147"/>
      <point x="0" y="263"/>
      <point x="0" y="352" type="curve" smooth="yes"/>
      <point x="0" y="541"/>
      <point x="63" y="715"/>
      <point x="276" y="715" type="curve" smooth="yes"/>
      <point x="379" y="715"/>
      <point x="402" y="700"/>
      <point x="454" y="651" type="curve"/>
      <point x="454" y="700" type="line"/>
      <point x="529" y="700" type="line"/>
      <point x="529" y="440" type="line"/>
      <point x="459" y="440" type="line"/>
      <point x="459" y="521"/>
      <point x="427" y="629"/>
      <point x="324" y="629" type="curve" smooth="yes"/>
      <point x="179" y="629"/>
      <point x="198" y="412"/>
      <point x="198" y="312" type="curve" smooth="yes"/>
      <point x="198" y="227"/>
      <point x="212" y="81"/>
      <point x="335" y="81" type="curve" smooth="yes"/>
      <point x="431" y="81"/>
      <point x="470" y="170"/>
      <point x="469" y="260" type="curve"/>
      <point x="544" y="260" type="line"/>
      <point x="544" y="0" type="line"/>
    </contour>
  </outline>
</glyph>
<glyph name="D" format="2">
  <advance width="613"/>
  <unicode hex="0044"/>
  <outline>
    <contour>
      <point x="1" y="0" type="line"/>
      <point x="322" y="0" type="line" smooth="yes"/>
      <point x="524" y="0"/>
      <point x="589" y="144"/>
      <point x="589" y="324" type="curve" smooth="yes"/>
      <point x="589" y="483"/>
      <point x="561" y="615"/>
      <point x="456" y="668" type="curve" smooth="yes"/>
      <point x="400" y="696"/>
      <point x="355" y="700"/>
      <point x="293" y="700" type="curve" smooth="yes"/>
      <point x="0" y="700" type="line"/>
      <point x="0" y="630" type="line"/>
      <point x="71" y="630" type="line"/>
      <point x="71" y="80" type="line"/>
      <point x="1" y="80" type="line"/>
    </contour>
    <contour>
      <point x="213" y="71" type="curve"/>
      <point x="213" y="629" type="line"/>
      <point x="220" y="632"/>
      <point x="231" y="632"/>
      <point x="239" y="632" type="curve" smooth="yes"/>
      <point x="395" y="632"/>
      <point x="400" y="493"/>
      <point x="400" y="370" type="curve" smooth="yes"/>
      <point x="400" y="310"/>
      <point x="410" y="128"/>
      <point x="336" y="81" type="curve" smooth="yes"/>
      <point x="300" y="58"/>
      <point x="261" y="63"/>
      <point x="241" y="63" type="curve" smooth="yes"/>
      <point x="233" y="63"/>
      <point x="217" y="63"/>
    </contour>
  </outline>
  <guideline angle="0" x="0" y="490"/>
</glyph>
<glyph name="E" format="2">
  <advance width="640"/>
  <unicode hex="0045"/>
  <outline>
    <contour>
      <point x="0" y="0" type="line"/>
      <point x="616" y="0" type="line"/>
      <point x="616" y="255" type="line"/>
      <point x="509" y="255" type="line"/>
      <point x="509" y="80" type="line"/>
      <point x="250" y="80" type="line"/>
      <point x="250" y="305" type="line"/>
      <point x="454" y="305" type="line"/>
      <point x="454" y="400" type="line"/>
      <point x="250" y="400" type="line"/>
      <point x="250" y="620" type="line"/>
      <point x="509" y="620" type="line"/>
      <point x="509" y="450" type="line"/>
      <point x="616" y="450" type="line"/>
      <point x="616" y="700" type="line"/>
      <point x="0" y="700" type="line"/>
      <point x="0" y="620" type="line"/>
      <point x="65" y="620" type="line"/>
      <point x="65" y="81" type="line"/>
      <point x="0" y="81" type="line"/>
    </contour>
  </outline>
</glyph>
<glyph name="F" format="2">
  <advance width="619"/>
  <unicode hex="0046"/>
  <outline>
    <contour>
      <point x="0" y="0" type="line"/>
      <point x="0" y="80" type="line"/>
      <point x="65" y="81" type="line"/>
      <point x="65" y="620" type="line"/>
      <point x="0" y="620" type="line"/>
      <point x="0" y="700" type="line"/>
      <point x="595" y="700" type="line"/>
      <point x="595" y="435" type="line"/>
      <point x="495" y="435" type="line"/>
      <point x="495" y="620" type="line"/>
      <point x="240" y="620" type="line"/>
      <point x="240" y="390" type="line"/>
      <point x="440" y="390" type="line"/>
      <point x="440" y="300" type="line"/>
      <point x="240" y="300" type="line"/>
      <point x="240" y="80" type="line"/>
      <point x="305" y="80" type="line"/>
      <point x="305" y="0" type="line"/>
    </contour>
  </outline>
</glyph>
<glyph name="G" format="2">
  <advance width="629"/>
  <unicode hex="0047"/>
  <guideline y="490"/>
  <outline>
    <contour>
      <point x="290" y="261" type="line"/>
      <point x="290" y="350" type="line"/>
      <point x="605" y="350" type="line"/>
      <point x="605" y="265" type="line"/>
      <point x="545" y="265" type="line"/>
      <point x="545" y="5" type="line"/>
      <point x="460" y="5" type="line"/>
      <point x="441" y="50" type="line"/>
      <point x="440" y="51" type="line"/>
      <point x="433" y="49"/>
      <point x="416" y="34"/>
      <point x="410" y="30" type="curve" smooth="yes"/>
      <point x="377" y="9"/>
      <point x="341" y="0"/>
      <point x="303" y="0" type="curve" smooth="yes"/>
      <point x="81" y="0"/>
      <point x="0" y="155"/>
      <point x="0" y="337" type="curve" smooth="yes"/>
      <point x="0" y="487"/>
      <point x="85" y="715"/>
      <point x="261" y="715" type="curve" smooth="yes"/>
      <point x="335" y="715"/>
      <point x="400" y="712"/>
      <point x="450" y="645" type="curve"/>
      <point x="450" y="700" type="line"/>
      <point x="540" y="700" type="line"/>
      <point x="540" y="445" type="line"/>
      <point x="460" y="445" type="line"/>
      <point x="444" y="535"/>
      <point x="417" y="617"/>
      <point x="310" y="617" type="curve" smooth="yes"/>
      <point x="173" y="617"/>
      <point x="179" y="433"/>
      <point x="179" y="337" type="curve" smooth="yes"/>
      <point x="179" y="271"/>
      <point x="179" y="76"/>
      <point x="277" y="76" type="curve" smooth="yes"/>
      <point x="348" y="76"/>
      <point x="361" y="146"/>
      <point x="361" y="202" type="curve" smooth="yes"/>
      <point x="361" y="222"/>
      <point x="359" y="242"/>
      <point x="357" y="261" type="curve"/>
    </contour>
  </outline>
</glyph>
<glyph name="H" format="2">
  <advance width="708"/>
  <unicode hex="0048"/>
  <outline>
    <contour>
      <point x="0" y="80" type="line"/>
      <point x="0" y="0" type="line"/>
      <point x="332" y="0" type="line"/>
      <point x="332" y="80" type="line"/>
    </contour>
    <contour>
      <point x="364" y="0" type="line"/>
      <point x="683" y="0" type="line"/>
      <point x="683" y="80" type="line"/>
      <point x="364" y="80" type="line"/>
    </contour>
    <contour>
      <point x="252" y="40" type="line"/>
      <point x="252" y="650" type="line"/>
      <point x="62" y="650" type="line"/>
      <point x="62" y="40" type="line"/>
    </contour>
    <contour>
      <point x="228" y="409" type="line"/>
      <point x="228" y="309" type="line"/>
      <point x="463" y="309" type="line"/>
      <point x="463" y="409" type="line"/>
    </contour>
    <contour>
      <point x="623" y="40" type="line"/>
      <point x="623" y="660" type="line"/>
      <point x="433" y="660" type="line"/>
      <point x="433" y="40" type="line"/>
    </contour>
    <contour>
      <point x="0" y="700" type="line"/>
      <point x="0" y="620" type="line"/>
      <point x="326" y="620" type="line"/>
      <point x="326" y="700" type="line"/>
    </contour>
    <contour>
      <point x="364" y="620" type="line"/>
      <point x="683" y="620" type="line"/>
      <point x="683" y="700" type="line"/>
      <point x="364" y="700" type="line"/>
    </contour>
  </outline>
</glyph>
<glyph name="I" format="2">
  <advance width="334"/>
  <unicode hex="0049"/>
  <outline>
    <contour>
      <point x="0" y="0" type="line"/>
      <point x="0" y="80" type="line"/>
      <point x="65" y="80" type="line"/>
      <point x="65" y="620" type="line"/>
      <point x="0" y="620" type="line"/>
      <point x="0" y="700" type="line"/>
      <point x="310" y="700" type="line"/>
      <point x="310" y="620" type="line"/>
      <point x="250" y="620" type="line"/>
      <point x="250" y="80" type="line"/>
      <point x="310" y="80" type="line"/>
      <point x="310" y="0" type="line"/>
    </contour>
  </outline>
</glyph>
<glyph name="J" format="2">
  <advance width="494"/>
  <unicode hex="004A"/>
  <guideline y="490"/>
  <outline>
    <contour>
      <point x="0" y="229" type="line"/>
      <point x="0" y="81"/>
      <point x="47" y="2"/>
      <point x="209" y="2" type="curve" smooth="yes"/>
      <point x="339" y="2"/>
      <point x="410" y="52"/>
      <point x="410" y="188" type="curve" smooth="yes"/>
      <point x="410" y="620" type="line"/>
      <point x="470" y="620" type="line"/>
      <point x="470" y="700" type="line"/>
      <point x="160" y="700" type="line"/>
      <point x="160" y="620" type="line"/>
      <point x="223" y="620" type="line"/>
      <point x="223" y="145" type="line" smooth="yes"/>
      <point x="223" y="124"/>
      <point x="224" y="81"/>
      <point x="194" y="81" type="curve" smooth="yes"/>
      <point x="168" y="81"/>
      <point x="162" y="98"/>
      <point x="162" y="120" type="curve" smooth="yes"/>
      <point x="160" y="258" type="line"/>
      <point x="0" y="258" type="line"/>
    </contour>
  </outline>
</glyph>
<glyph name="K" format="2">
  <advance width="690"/>
  <unicode hex="004B"/>
  <outline>
    <contour>
      <point x="0" y="0" type="line"/>
      <point x="307" y="0" type="line"/>
      <point x="310" y="80" type="line"/>
      <point x="243" y="80" type="line"/>
      <point x="243" y="266" type="line"/>
      <point x="310" y="334" type="line"/>
      <point x="416" y="80" type="line"/>
      <point x="336" y="80" type="line"/>
      <point x="333" y="0" type="line"/>
      <point x="666" y="0" type="line"/>
      <point x="666" y="80" type="line"/>
      <point x="614" y="80" type="line"/>
      <point x="442" y="467" type="line"/>
      <point x="614" y="620" type="line"/>
      <point x="666" y="620" type="line"/>
      <point x="666" y="700" type="line"/>
      <point x="416" y="700" type="line"/>
      <point x="416" y="620" type="line"/>
      <point x="496" y="620" type="line"/>
      <point x="411" y="535"/>
      <point x="327" y="470"/>
      <point x="243" y="384" type="curve"/>
      <point x="243" y="620" type="line"/>
      <point x="310" y="620" type="line"/>
      <point x="310" y="700" type="line"/>
      <point x="0" y="700" type="line"/>
      <point x="0" y="620" type="line"/>
      <point x="55" y="620" type="line"/>
      <point x="55" y="80" type="line"/>
      <point x="0" y="81" type="line"/>
    </contour>
  </outline>
</glyph>
<glyph name="L" format="2">
  <advance width="644"/>
  <unicode hex="004C"/>
  <outline>
    <contour>
      <point x="0" y="0" type="line"/>
      <point x="0" y="80" type="line"/>
      <point x="61" y="80" type="line"/>
      <point x="61" y="620" type="line"/>
      <point x="0" y="620" type="line"/>
      <point x="0" y="700" type="line"/>
      <point x="310" y="700" type="line"/>
      <point x="310" y="620" type="line"/>
      <point x="251" y="620" type="line"/>
      <point x="251" y="80" type="line"/>
      <point x="500" y="80" type="line"/>
      <point x="500" y="260" type="line"/>
      <point x="620" y="260" type="line"/>
      <point x="620" y="0" type="line"/>
    </contour>
  </outline>
</glyph>
<glyph name="M" format="2">
  <advance width="824"/>
  <unicode hex="004D"/>
  <outline>
    <contour>
      <point x="0" y="0" type="line"/>
      <point x="220" y="0" type="line"/>
      <point x="223" y="80" type="line"/>
      <point x="160" y="80" type="line"/>
      <point x="160" y="500" type="line"/>
      <point x="300" y="0" type="line"/>
      <point x="422" y="0" type="line"/>
      <point x="560" y="560" type="line"/>
      <point x="560" y="80" type="line"/>
      <point x="500" y="80" type="line"/>
      <point x="497" y="0" type="line"/>
      <point x="800" y="0" type="line"/>
      <point x="800" y="80" type="line"/>
      <point x="740" y="80" type="line"/>
      <point x="740" y="620" type="line"/>
      <point x="800" y="620" type="line"/>
      <point x="800" y="700" type="line"/>
      <point x="500" y="700" type="line"/>
      <point x="407" y="324" type="line"/>
      <point x="300" y="700" type="line"/>
      <point x="0" y="700" type="line"/>
      <point x="0" y="620" type="line"/>
      <point x="60" y="620" type="line"/>
      <point x="60" y="80" type="line"/>
      <point x="0" y="80" type="line"/>
    </contour>
  </outline>
</glyph>
<glyph name="N" format="2">
  <advance width="689"/>
  <unicode hex="004E"/>
  <outline>
    <contour>
      <point x="0" y="80" type="line"/>
      <point x="0" y="0" type="line"/>
      <point x="210" y="0" type="line"/>
      <point x="210" y="80" type="line"/>
      <point x="150" y="80" type="line"/>
      <point x="150" y="550" type="line"/>
      <point x="425" y="0" type="line"/>
      <point x="605" y="0" type="line"/>
      <point x="605" y="620" type="line"/>
      <point x="665" y="620" type="line"/>
      <point x="665" y="700" type="line"/>
      <point x="465" y="700" type="line"/>
      <point x="465" y="620" type="line"/>
      <point x="525" y="620" type="line"/>
      <point x="525" y="206" type="line"/>
      <point x="280" y="700" type="line"/>
      <point x="0" y="700" type="line"/>
      <point x="0" y="620" type="line"/>
      <point x="70" y="620" type="line"/>
      <point x="70" y="80" type="line"/>
    </contour>
  </outline>
</glyph>
<glyph name="O" format="2">
  <advance width="647"/>
  <unicode hex="004F"/>
  <outline>
    <contour>
      <point x="314" y="0" type="curve" smooth="yes"/>
      <point x="121" y="0"/>
      <point x="0" y="175"/>
      <point x="0" y="368" type="curve"/>
      <point x="0" y="561"/>
      <point x="121" y="715"/>
      <point x="314" y="715" type="curve" smooth="yes"/>
      <point x="507" y="715"/>
      <point x="623" y="548"/>
      <point x="623" y="355" type="curve" smooth="yes"/>
      <point x="623" y="162"/>
      <point x="507" y="0"/>
    </contour>
    <contour>
      <point x="215" y="175" type="line" smooth="yes"/>
      <point x="215" y="120"/>
      <point x="260" y="75"/>
      <point x="315" y="75" type="curve" smooth="yes"/>
      <point x="370" y="75"/>
      <point x="415" y="120"/>
      <point x="415" y="175" type="curve" smooth="yes"/>
      <point x="415" y="534" type="line" smooth="yes"/>
      <point x="415" y="589"/>
      <point x="370" y="634"/>
      <point x="315" y="634" type="curve" smooth="yes"/>
      <point x="260" y="634"/>
      <point x="215" y="589"/>
      <point x="215" y="534" type="curve" smooth="yes"/>
    </contour>
  </outline>
</glyph>
<glyph name="P" format="2">
  <advance width="649"/>
  <unicode hex="0050"/>
  <guideline y="490"/>
  <outline>
    <contour>
      <point x="0" y="80" type="line"/>
      <point x="0" y="0" type="line"/>
      <point x="320" y="0" type="line"/>
      <point x="320" y="80" type="line"/>
      <point x="250" y="80" type="line"/>
      <point x="250" y="300" type="line"/>
      <point x="425" y="300" type="line" smooth="yes"/>
      <point x="545" y="300"/>
      <point x="625" y="380"/>
      <point x="625" y="500" type="curve" smooth="yes"/>
      <point x="625" y="620"/>
      <point x="545" y="700"/>
      <point x="425" y="700" type="curve" smooth="yes"/>
      <point x="0" y="700" type="line"/>
      <point x="0" y="620" type="line"/>
      <point x="70" y="620" type="line"/>
      <point x="69" y="80" type="line"/>
    </contour>
    <contour>
      <point x="250" y="630" type="line"/>
      <point x="310" y="630" type="line" smooth="yes"/>
      <point x="382" y="630"/>
      <point x="425" y="581"/>
      <point x="425" y="510" type="curve" smooth="yes"/>
      <point x="425" y="438"/>
      <point x="377" y="390"/>
      <point x="305" y="390" type="curve" smooth="yes"/>
      <point x="250" y="390" type="line"/>
    </contour>
  </outline>
</glyph>
<glyph name="Q" format="2">
  <advance width="624"/>
  <unicode hex="0051"/>
  <outline>
    <contour>
      <point x="265" y="0" type="curve" smooth="yes"/>
      <point x="484" y="0"/>
      <point x="530" y="160"/>
      <point x="530" y="350" type="curve" smooth="yes"/>
      <point x="530" y="540"/>
      <point x="483" y="715"/>
      <point x="264" y="715" type="curve" smooth="yes"/>
      <point x="45" y="715"/>
      <point x="0" y="540"/>
      <point x="0" y="350" type="curve" smooth="yes"/>
      <point x="0" y="160"/>
      <point x="46" y="0"/>
    </contour>
    <contour>
      <point x="340" y="150" type="line" smooth="yes"/>
      <point x="340" y="105"/>
      <point x="310" y="75"/>
      <point x="265" y="75" type="curve" smooth="yes"/>
      <point x="220" y="75"/>
      <point x="190" y="105"/>
      <point x="190" y="150" type="curve" smooth="yes"/>
      <point x="190" y="550" type="line" smooth="yes"/>
      <point x="190" y="595"/>
      <point x="220" y="625"/>
      <point x="265" y="625" type="curve" smooth="yes"/>
      <point x="310" y="625"/>
      <point x="340" y="595"/>
      <point x="340" y="550" type="curve" smooth="yes"/>
    </contour>
    <contour>
      <point x="265" y="220" type="line"/>
      <point x="332" y="220"/>
      <point x="455" y="0"/>
      <point x="600" y="0" type="curve"/>
      <point x="600" y="75" type="line"/>
      <point x="569" y="75"/>
      <point x="373" y="228"/>
      <point x="340" y="259" type="curve" smooth="yes"/>
      <point x="319" y="279"/>
      <point x="310" y="320"/>
      <point x="265" y="320" type="curve"/>
    </contour>
  </outline>
</glyph>
<glyph name="R" format="2">
  <advance width="709"/>
  <unicode hex="0052"/>
  <guideline y="490"/>
  <outline>
    <contour>
      <point x="0" y="0" type="line"/>
      <point x="0" y="80" type="line"/>
      <point x="60" y="80" type="line"/>
      <point x="60" y="620" type="line"/>
      <point x="0" y="620" type="line"/>
      <point x="0" y="700" type="line"/>
      <point x="425" y="700" type="line" smooth="yes"/>
      <point x="545" y="700"/>
      <point x="625" y="620"/>
      <point x="625" y="500" type="curve" smooth="yes"/>
      <point x="625" y="422"/>
      <point x="566" y="350"/>
      <point x="485" y="350" type="curve"/>
      <point x="562" y="350"/>
      <point x="625" y="287"/>
      <point x="625" y="210" type="curve" smooth="yes"/>
      <point x="625" y="155"/>
      <point x="604" y="70"/>
      <point x="685" y="70" type="curve"/>
      <point x="685" y="0" type="line"/>
      <point x="545" y="0" type="line" smooth="yes"/>
      <point x="479" y="0"/>
      <point x="425" y="54"/>
      <point x="425" y="120" type="curve" smooth="yes"/>
      <point x="425" y="173"/>
      <point x="446" y="300"/>
      <point x="360" y="300" type="curve" smooth="yes"/>
      <point x="250" y="300" type="line"/>
      <point x="250" y="80" type="line"/>
      <point x="330" y="80" type="line"/>
      <point x="330" y="0" type="line"/>
    </contour>
    <contour>
      <point x="305" y="390" type="line" smooth="yes"/>
      <point x="377" y="390"/>
      <point x="425" y="438"/>
      <point x="425" y="510" type="curve" smooth="yes"/>
      <point x="425" y="581"/>
      <point x="382" y="630"/>
      <point x="310" y="630" type="curve" smooth="yes"/>
      <point x="250" y="630" type="line"/>
      <point x="250" y="390" type="line"/>
    </contour>
  </outline>
</glyph>
<glyph name="S" format="2">
  <advance width="565"/>
  <unicode hex="0053"/>
  <outline>
    <contour>
      <point x="0" y="0" type="line"/>
      <point x="0" y="250" type="line"/>
      <point x="81" y="250" type="line"/>
      <point x="82" y="172"/>
      <point x="161" y="79"/>
      <point x="241" y="79" type="curve" smooth="yes"/>
      <point x="292" y="79"/>
      <point x="331" y="106"/>
      <point x="331" y="160" type="curve" smooth="yes"/>
      <point x="331" y="283"/>
      <point x="11" y="283"/>
      <point x="11" y="495" type="curve" smooth="yes"/>
      <point x="11" y="629"/>
      <point x="116" y="715"/>
      <point x="241" y="715" type="curve" smooth="yes"/>
      <point x="317" y="715"/>
      <point x="401" y="681"/>
      <point x="451" y="619" type="curve"/>
      <point x="451" y="700" type="line"/>
      <point x="531" y="700" type="line"/>
      <point x="531" y="450" type="line"/>
      <point x="451" y="450" type="line"/>
      <point x="451" y="524"/>
      <point x="387" y="623"/>
      <point x="306" y="623" type="curve" smooth="yes"/>
      <point x="253" y="623"/>
      <point x="211" y="597"/>
      <point x="211" y="540" type="curve" smooth="yes"/>
      <point x="211" y="420"/>
      <point x="541" y="424"/>
      <point x="541" y="205" type="curve" smooth="yes"/>
      <point x="541" y="69"/>
      <point x="432" y="0"/>
      <point x="306" y="0" type="curve" smooth="yes"/>
      <point x="225" y="0"/>
      <point x="141" y="22"/>
      <point x="81" y="79" type="curve"/>
      <point x="81" y="0" type="line"/>
    </contour>
  </outline>
  <guideline angle="0" x="0" y="490"/>
</glyph>
<glyph name="T" format="2">
  <advance width="640"/>
  <unicode hex="0054"/>
  <guideline x="218"/>
  <guideline x="408"/>
  <outline>
    <contour>
      <point x="146" y="0" type="line"/>
      <point x="478" y="0" type="line"/>
      <point x="478" y="80" type="line"/>
      <point x="408" y="80" type="line"/>
      <point x="408" y="610" type="line"/>
      <point x="539" y="610" type="line"/>
      <point x="542" y="450" type="line"/>
      <point x="616" y="450" type="line"/>
      <point x="608" y="700" type="line"/>
      <point x="8" y="700" type="line"/>
      <point x="0" y="450" type="line"/>
      <point x="72" y="450" type="line"/>
      <point x="76" y="610" type="line"/>
      <point x="218" y="610" type="line"/>
      <point x="218" y="80" type="line"/>
      <point x="148" y="80" type="line"/>
    </contour>
  </outline>
</glyph>
<glyph name="U" format="2">
  <advance width="674"/>
  <unicode hex="0055"/>
  <outline>
    <contour>
      <point x="65" y="170" type="line" smooth="yes"/>
      <point x="65" y="75"/>
      <point x="153" y="0"/>
      <point x="245" y="0" type="curve" smooth="yes"/>
      <point x="410" y="0" type="line" smooth="yes"/>
      <point x="505" y="0"/>
      <point x="595" y="71"/>
      <point x="595" y="170" type="curve" smooth="yes"/>
      <point x="595" y="620" type="line"/>
      <point x="650" y="620" type="line"/>
      <point x="650" y="700" type="line"/>
      <point x="440" y="700" type="line"/>
      <point x="440" y="620" type="line"/>
      <point x="505" y="620" type="line"/>
      <point x="505" y="170" type="line" smooth="yes"/>
      <point x="505" y="97"/>
      <point x="436" y="79"/>
      <point x="375" y="79" type="curve" smooth="yes"/>
      <point x="314" y="79"/>
      <point x="245" y="97"/>
      <point x="245" y="170" type="curve" smooth="yes"/>
      <point x="245" y="620" type="line"/>
      <point x="310" y="620" type="line"/>
      <point x="310" y="700" type="line"/>
      <point x="0" y="700" type="line"/>
      <point x="0" y="620" type="line"/>
      <point x="65" y="620" type="line"/>
    </contour>
  </outline>
</glyph>
<glyph name="V" format="2">
  <advance width="694"/>
  <unicode hex="0056"/>
  <outline>
    <contour>
      <point x="250" y="0" type="line"/>
      <point x="430" y="0" type="line"/>
      <point x="610" y="620" type="line"/>
      <point x="670" y="620" type="line"/>
      <point x="670" y="700" type="line"/>
      <point x="460" y="700" type="line"/>
      <point x="460" y="620" type="line"/>
      <point x="520" y="620" type="line"/>
      <point x="385" y="160" type="line"/>
      <point x="250" y="620" type="line"/>
      <point x="310" y="620" type="line"/>
      <point x="310" y="700" type="line"/>
      <point x="0" y="700" type="line"/>
      <point x="0" y="620" type="line"/>
      <point x="60" y="620" type="line"/>
    </contour>
  </outline>
</glyph>
<glyph name="W" format="2">
  <advance width="1164"/>
  <unicode hex="0057"/>
  <outline>
    <contour>
      <point x="240" y="0" type="line"/>
      <point x="420" y="0" type="line"/>
      <point x="570" y="533" type="line"/>
      <point x="720" y="0" type="line"/>
      <point x="900" y="0" type="line"/>
      <point x="1080" y="620" type="line"/>
      <point x="1140" y="620" type="line"/>
      <point x="1140" y="700" type="line"/>
      <point x="910" y="700" type="line"/>
      <point x="910" y="620" type="line"/>
      <point x="990" y="620" type="line"/>
      <point x="855" y="160" type="line"/>
      <point x="730" y="620" type="line"/>
      <point x="810" y="620" type="line"/>
      <point x="810" y="700" type="line"/>
      <point x="430" y="700" type="line"/>
      <point x="430" y="620" type="line"/>
      <point x="510" y="620" type="line"/>
      <point x="375" y="160" type="line"/>
      <point x="250" y="620" type="line"/>
      <point x="330" y="620" type="line"/>
      <point x="330" y="700" type="line"/>
      <point x="0" y="700" type="line"/>
      <point x="0" y="620" type="line"/>
      <point x="60" y="620" type="line"/>
    </contour>
  </outline>
</glyph>
<glyph name="X" format="2">
  <advance width="684"/>
  <unicode hex="0058"/>
  <outline>
    <contour>
      <point x="357" y="463" type="move"/>
      <point x="250" y="620" type="line"/>
      <point x="340" y="620" type="line"/>
      <point x="340" y="700" type="line"/>
      <point x="0" y="700" type="line"/>
      <point x="0" y="620" type="line"/>
      <point x="40" y="620" type="line"/>
      <point x="236" y="315" type="line"/>
    </contour>
    <contour>
      <point x="620" y="620" type="move"/>
      <point x="660" y="620" type="line"/>
      <point x="660" y="700" type="line"/>
      <point x="410" y="700" type="line"/>
      <point x="410" y="620" type="line"/>
      <point x="500" y="620" type="line"/>
    </contour>
    <contour>
      <point x="288" y="230" type="move"/>
      <point x="390" y="80" type="line"/>
      <point x="320" y="80" type="line"/>
      <point x="320" y="0" type="line"/>
      <point x="660" y="0" type="line"/>
      <point x="660" y="80" type="line"/>
      <point x="600" y="80" type="line"/>
      <point x="408" y="378" type="line"/>
    </contour>
    <contour>
      <point x="30" y="80" type="move"/>
      <point x="0" y="80" type="line"/>
      <point x="0" y="0" type="line"/>
      <point x="220" y="0" type="line"/>
      <point x="220" y="80" type="line"/>
      <point x="150" y="80" type="line"/>
    </contour>
  </outline>
</glyph>
<glyph name="Y" format="2">
  <advance width="704"/>
  <unicode hex="0059"/>
  <outline>
    <contour>
      <point x="190" y="0" type="line"/>
      <point x="500" y="0" type="line"/>
      <point x="500" y="80" type="line"/>
      <point x="440" y="80" type="line"/>
      <point x="440" y="324" type="line"/>
      <point x="620" y="620" type="line"/>
      <point x="680" y="620" type="line"/>
      <point x="680" y="700" type="line"/>
      <point x="460" y="700" type="line"/>
      <point x="460" y="620" type="line"/>
      <point x="520" y="620" type="line"/>
      <point x="398" y="426" type="line"/>
      <point x="280" y="620" type="line"/>
      <point x="340" y="620" type="line"/>
      <point x="340" y="700" type="line"/>
      <point x="0" y="700" type="line"/>
      <point x="0" y="620" type="line"/>
      <point x="60" y="620" type="line"/>
      <point x="250" y="296" type="line"/>
      <point x="250" y="80" type="line"/>
      <point x="190" y="80" type="line"/>
    </contour>
  </outline>
</glyph>
<glyph name="Z" format="2">
  <advance width="594"/>
  <unicode hex="005A"/>
  <outline>
    <contour>
      <point x="0" y="0" type="line"/>
      <point x="570" y="0" type="line"/>
      <point x="570" y="250" type="line"/>
      <point x="470" y="250" type="line"/>
      <point x="470" y="80" type="line"/>
      <point x="245" y="80" type="line"/>
      <point x="569" y="640" type="line"/>
      <point x="570" y="640" type="line"/>
      <point x="570" y="701" type="line"/>
      <point x="0" y="701" type="line"/>
      <point x="0" y="450" type="line"/>
      <point x="100" y="450" type="line"/>
      <point x="101" y="621" type="line"/>
      <point x="325" y="621" type="line"/>
      <point x="0" y="60" type="line"/>
    </contour>
  </outline>
</glyph>
<glyph name="asciicircum" format="2">
  <advance width="572"/>
  <unicode hex="005E"/>
  <outline>
    <contour>
      <point x="82" y="272" type="line"/>
      <point x="208" y="722" type="line"/>
      <point x="337" y="722" type="line"/>
      <point x="463" y="272" type="line"/>
      <point x="399" y="272" type="line"/>
      <point x="305" y="608" type="line"/>
      <point x="235" y="608" type="line"/>
      <point x="305" y="608" type="line"/>
      <point x="235" y="608" type="line"/>
      <point x="144" y="272" type="line"/>
    </contour>
  </outline>
</glyph>
<glyph name="a" format="2">
  <advance width="488"/>
  <unicode hex="0061"/>
  <outline>
    <contour>
      <point x="143" y="333" type="line"/>
      <point x="143" y="376"/>
      <point x="157" y="440"/>
      <point x="212" y="440" type="curve" smooth="yes"/>
      <point x="274" y="440"/>
      <point x="272" y="372"/>
      <point x="272" y="328" type="curve" smooth="yes"/>
      <point x="272" y="308"/>
      <point x="266" y="290"/>
      <point x="243" y="290" type="curve" smooth="yes"/>
      <point x="142" y="290"/>
      <point x="0" y="285"/>
      <point x="0" y="150" type="curve" smooth="yes"/>
      <point x="0" y="40"/>
      <point x="66" y="-10"/>
      <point x="172" y="-10" type="curve" smooth="yes"/>
      <point x="213" y="-10"/>
      <point x="279" y="7"/>
      <point x="300" y="47" type="curve"/>
      <point x="334" y="4"/>
      <point x="356" y="0"/>
      <point x="409" y="0" type="curve" smooth="yes"/>
      <point x="464" y="0" type="line"/>
      <point x="464" y="46" type="line"/>
      <point x="421" y="54"/>
      <point x="408" y="65"/>
      <point x="408" y="110" type="curve" smooth="yes"/>
      <point x="408" y="344" type="line" smooth="yes"/>
      <point x="408" y="442"/>
      <point x="315" y="510"/>
      <point x="225" y="510" type="curve" smooth="yes"/>
      <point x="114" y="510"/>
      <point x="14" y="458"/>
      <point x="7" y="333" type="curve"/>
    </contour>
    <contour>
      <point x="272" y="157" type="line" smooth="yes"/>
      <point x="272" y="110"/>
      <point x="257" y="44"/>
      <point x="198" y="44" type="curve" smooth="yes"/>
      <point x="151" y="44"/>
      <point x="135" y="93"/>
      <point x="135" y="132" type="curve" smooth="yes"/>
      <point x="135" y="228"/>
      <point x="196" y="232"/>
      <point x="272" y="235" type="curve"/>
    </contour>
  </outline>
</glyph>
<glyph name="b" format="2">
  <advance width="495"/>
  <unicode hex="0062"/>
  <outline>
    <contour>
      <point x="10" y="0" type="line"/>
      <point x="10" y="50" type="line"/>
      <point x="65" y="50" type="line"/>
      <point x="65" y="650" type="line"/>
      <point x="0" y="650" type="line"/>
      <point x="0" y="700" type="line"/>
      <point x="195" y="700" type="line"/>
      <point x="195" y="460" type="line"/>
      <point x="210" y="475"/>
      <point x="220" y="510"/>
      <point x="291" y="510" type="curve" smooth="yes"/>
      <point x="444" y="510"/>
      <point x="471" y="334"/>
      <point x="471" y="233" type="curve" smooth="yes"/>
      <point x="471" y="124"/>
      <point x="410" y="1"/>
      <point x="300" y="1" type="curve" smooth="yes"/>
      <point x="255" y="1"/>
      <point x="224" y="21"/>
      <point x="195" y="45" type="curve"/>
      <point x="195" y="0" type="line"/>
    </contour>
    <contour>
      <point x="254" y="59" type="curve" smooth="yes"/>
      <point x="343" y="59"/>
      <point x="327" y="226"/>
      <point x="327" y="291" type="curve" smooth="yes"/>
      <point x="327" y="330"/>
      <point x="333" y="427"/>
      <point x="259" y="427" type="curve" smooth="yes"/>
      <point x="210" y="427"/>
      <point x="195" y="384"/>
      <point x="195" y="338" type="curve" smooth="yes"/>
      <point x="195" y="148" type="line" smooth="yes"/>
      <point x="195" y="107"/>
      <point x="206" y="59"/>
    </contour>
  </outline>
</glyph>
<glyph name="c" format="2">
  <advance width="448"/>
  <unicode hex="0063"/>
  <outline>
    <contour>
      <point x="143" y="325" type="line" smooth="yes"/>
      <point x="143" y="367"/>
      <point x="160" y="424"/>
      <point x="212" y="424" type="curve" smooth="yes"/>
      <point x="274" y="424"/>
      <point x="282" y="363"/>
      <point x="284" y="314" type="curve"/>
      <point x="419" y="314" type="line"/>
      <point x="420" y="316"/>
      <point x="420" y="318"/>
      <point x="420" y="320" type="curve" smooth="yes"/>
      <point x="420" y="412"/>
      <point x="364" y="510"/>
      <point x="220" y="510" type="curve" smooth="yes"/>
      <point x="72" y="510"/>
      <point x="0" y="408"/>
      <point x="0" y="256" type="curve" smooth="yes"/>
      <point x="0" y="113"/>
      <point x="76" y="-4"/>
      <point x="230" y="-4" type="curve" smooth="yes"/>
      <point x="354" y="-4"/>
      <point x="414" y="76"/>
      <point x="424" y="195" type="curve"/>
      <point x="339" y="195" type="line"/>
      <point x="339" y="182" type="line" smooth="yes"/>
      <point x="339" y="121"/>
      <point x="316" y="56"/>
      <point x="244" y="56" type="curve" smooth="yes"/>
      <point x="189" y="56"/>
      <point x="143" y="90"/>
      <point x="143" y="148" type="curve" smooth="yes"/>
    </contour>
  </outline>
</glyph>
<glyph name="d" format="2">
  <advance width="475"/>
  <unicode hex="0064"/>
  <outline>
    <contour>
      <point x="261" y="0" type="line"/>
      <point x="451" y="0" type="line"/>
      <point x="451" y="50" type="line"/>
      <point x="401" y="50" type="line"/>
      <point x="401" y="700" type="line"/>
      <point x="208" y="700" type="line"/>
      <point x="208" y="650" type="line"/>
      <point x="267" y="650" type="line"/>
      <point x="267" y="460" type="line"/>
      <point x="244" y="490"/>
      <point x="226" y="509"/>
      <point x="171" y="510" type="curve" smooth="yes"/>
      <point x="27" y="513"/>
      <point x="0" y="353"/>
      <point x="0" y="248" type="curve" smooth="yes"/>
      <point x="0" y="151"/>
      <point x="47" y="0"/>
      <point x="168" y="0" type="curve" smooth="yes"/>
      <point x="204" y="0"/>
      <point x="233" y="14"/>
      <point x="261" y="35" type="curve"/>
    </contour>
    <contour>
      <point x="265" y="184" type="line" smooth="yes"/>
      <point x="265" y="140"/>
      <point x="269" y="63"/>
      <point x="204" y="63" type="curve" smooth="yes"/>
      <point x="139" y="63"/>
      <point x="135" y="132"/>
      <point x="135" y="180" type="curve" smooth="yes"/>
      <point x="135" y="294" type="line" smooth="yes"/>
      <point x="135" y="340"/>
      <point x="139" y="431"/>
      <point x="205" y="431" type="curve" smooth="yes"/>
      <point x="249" y="431"/>
      <point x="266" y="402"/>
      <point x="266" y="363" type="curve"/>
      <point x="265" y="346" type="line"/>
    </contour>
  </outline>
</glyph>
<glyph name="e" format="2">
  <advance width="445"/>
  <unicode hex="0065"/>
  <outline>
    <contour>
      <point x="235" y="63" type="line"/>
      <point x="315" y="72"/>
      <point x="320" y="131"/>
      <point x="339" y="192" type="curve"/>
      <point x="417" y="192" type="line"/>
      <point x="396" y="60"/>
      <point x="343" y="0"/>
      <point x="207" y="0" type="curve" smooth="yes"/>
      <point x="53" y="0"/>
      <point x="0" y="140"/>
      <point x="0" y="268" type="curve" smooth="yes"/>
      <point x="0" y="375"/>
      <point x="46" y="510"/>
      <point x="214" y="510" type="curve"/>
      <point x="393" y="510"/>
      <point x="426" y="313"/>
      <point x="420" y="235" type="curve"/>
      <point x="131" y="230" type="line"/>
      <point x="128" y="230"/>
      <point x="128" y="222"/>
      <point x="128" y="220" type="curve"/>
      <point x="132" y="151"/>
      <point x="134" y="63"/>
      <point x="225" y="63" type="curve" smooth="yes"/>
    </contour>
    <contour>
      <point x="292" y="284" type="line"/>
      <point x="290" y="339"/>
      <point x="293" y="426"/>
      <point x="205" y="426" type="curve" smooth="yes"/>
      <point x="118" y="426"/>
      <point x="131" y="297"/>
      <point x="133" y="283" type="curve"/>
    </contour>
  </outline>
</glyph>
<glyph name="f" format="2">
  <advance width="299"/>
  <unicode hex="0066"/>
  <outline>
    <contour>
      <point x="0" y="0" type="line"/>
      <point x="0" y="50" type="line"/>
      <point x="50" y="50" type="line"/>
      <point x="50" y="425" type="line"/>
      <point x="0" y="425" type="line"/>
      <point x="0" y="490" type="line"/>
      <point x="55" y="490" type="line"/>
      <point x="55" y="581"/>
      <point x="39" y="700"/>
      <point x="165" y="700" type="curve" smooth="yes"/>
      <point x="250" y="700"/>
      <point x="299" y="678"/>
      <point x="299" y="603" type="curve" smooth="yes"/>
      <point x="299" y="540" type="line"/>
      <point x="220" y="540" type="line"/>
      <point x="220" y="566"/>
      <point x="232" y="639"/>
      <point x="179" y="639" type="curve" smooth="yes"/>
      <point x="137" y="639"/>
      <point x="139" y="607"/>
      <point x="139" y="581" type="curve" smooth="yes"/>
      <point x="139" y="490"/>
      <point x="179" y="484"/>
      <point x="250" y="481" type="curve"/>
      <point x="250" y="416" type="line"/>
      <point x="185" y="416" type="line"/>
      <point x="185" y="50" type="line"/>
      <point x="250" y="50" type="line"/>
      <point x="250" y="0" type="line"/>
    </contour>
  </outline>
</glyph>
<glyph name="g" format="2">
  <advance width="477"/>
  <unicode hex="0067"/>
  <outline>
    <contour>
      <point x="265" y="20" type="line"/>
      <point x="253" y="10"/>
      <point x="232" y="0"/>
      <point x="186" y="0" type="curve" smooth="yes"/>
      <point x="61" y="0"/>
      <point x="0" y="148"/>
      <point x="0" y="265" type="curve" smooth="yes"/>
      <point x="0" y="370"/>
      <point x="60" y="510"/>
      <point x="181" y="510" type="curve" smooth="yes"/>
      <point x="229" y="510"/>
      <point x="244" y="493"/>
      <point x="263" y="470" type="curve"/>
      <point x="263" y="500" type="line"/>
      <point x="453" y="500" type="line"/>
      <point x="453" y="450" type="line"/>
      <point x="403" y="450" type="line"/>
      <point x="403" y="50" type="line" smooth="yes"/>
      <point x="403" y="-9"/>
      <point x="398" y="-109"/>
      <point x="358" y="-157" type="curve" smooth="yes"/>
      <point x="327" y="-194"/>
      <point x="283" y="-207"/>
      <point x="218" y="-207" type="curve" smooth="yes"/>
      <point x="96" y="-207"/>
      <point x="41" y="-162"/>
      <point x="13" y="-45" type="curve"/>
      <point x="59" y="-45"/>
      <point x="92" y="-45"/>
      <point x="138" y="-45" type="curve"/>
      <point x="138" y="-87"/>
      <point x="153" y="-144"/>
      <point x="205" y="-144" type="curve" smooth="yes"/>
      <point x="258" y="-144"/>
      <point x="265" y="-96"/>
      <point x="265" y="-54" type="curve" smooth="yes"/>
    </contour>
    <contour>
      <point x="265" y="371" type="line" smooth="yes"/>
      <point x="265" y="407"/>
      <point x="252" y="437"/>
      <point x="211" y="437" type="curve" smooth="yes"/>
      <point x="158" y="437"/>
      <point x="143" y="384"/>
      <point x="143" y="340" type="curve" smooth="yes"/>
      <point x="143" y="150" type="line" smooth="yes"/>
      <point x="143" y="109"/>
      <point x="167" y="70"/>
      <point x="212" y="70" type="curve" smooth="yes"/>
      <point x="251" y="70"/>
      <point x="265" y="101"/>
      <point x="265" y="136" type="curve" smooth="yes"/>
    </contour>
  </outline>
</glyph>
<glyph name="h" format="2">
  <advance width="597"/>
  <unicode hex="0068"/>
  <outline>
    <contour>
      <point x="0" y="0" type="line"/>
      <point x="257" y="0" type="line"/>
      <point x="261" y="50" type="line"/>
      <point x="214" y="50" type="line"/>
      <point x="214" y="351" type="line" smooth="yes"/>
      <point x="214" y="385"/>
      <point x="242" y="431"/>
      <point x="286" y="431" type="curve" smooth="yes"/>
      <point x="326" y="431"/>
      <point x="365" y="413"/>
      <point x="365" y="376" type="curve" smooth="yes"/>
      <point x="364" y="50" type="line"/>
      <point x="290" y="50" type="line"/>
      <point x="286" y="0" type="line"/>
      <point x="573" y="0" type="line"/>
      <point x="573" y="50" type="line"/>
      <point x="514" y="50" type="line"/>
      <point x="514" y="376" type="line" smooth="yes"/>
      <point x="514" y="444"/>
      <point x="441" y="510"/>
      <point x="362" y="510" type="curve" smooth="yes"/>
      <point x="306" y="510"/>
      <point x="254" y="488"/>
      <point x="214" y="453" type="curve"/>
      <point x="214" y="702" type="line"/>
      <point x="0" y="702" type="line"/>
      <point x="0" y="652" type="line"/>
      <point x="61" y="652" type="line"/>
      <point x="61" y="50" type="line"/>
      <point x="0" y="50" type="line"/>
    </contour>
  </outline>
  <guideline angle="90" x="61" y="0"/>
  <guideline angle="90" x="214" y="0"/>
  <guideline angle="90" x="364" y="0"/>
  <guideline angle="90" x="514" y="0"/>
</glyph>
<glyph name="i" format="2">
  <advance width="284"/>
  <unicode hex="0069"/>
  <outline>
    <component base="period" xOffset="60" yOffset="583"/>
    <contour>
      <point x="0" y="50" type="line"/>
      <point x="0" y="0" type="line"/>
      <point x="260" y="0" type="line"/>
      <point x="260" y="50" type="line"/>
      <point x="200" y="50" type="line"/>
      <point x="200" y="490" type="line"/>
      <point x="0" y="490" type="line"/>
      <point x="0" y="440" type="line"/>
      <point x="60" y="440" type="line"/>
      <point x="60" y="50" type="line"/>
    </contour>
  </outline>
</glyph>
<glyph name="j" format="2">
  <advance width="224"/>
  <unicode hex="006A"/>
  <guideline y="490"/>
  <outline>
    <component base="period" xOffset="60" yOffset="583"/>
    <contour>
      <point x="0" y="-230" type="line"/>
      <point x="130" y="-230" type="line" smooth="yes"/>
      <point x="169" y="-230"/>
      <point x="200" y="-199"/>
      <point x="200" y="-160" type="curve" smooth="yes"/>
      <point x="200" y="490" type="line"/>
      <point x="0" y="490" type="line"/>
      <point x="0" y="440" type="line"/>
      <point x="60" y="440" type="line"/>
      <point x="60" y="-120" type="line" smooth="yes"/>
      <point x="60" y="-153"/>
      <point x="33" y="-180"/>
      <point x="0" y="-180" type="curve"/>
    </contour>
  </outline>
</glyph>
<glyph name="k" format="2">
  <advance width="524"/>
  <unicode hex="006B"/>
  <guideline y="490"/>
  <outline>
    <contour>
      <point x="0" y="0" type="line"/>
      <point x="227" y="0" type="line"/>
      <point x="230" y="50" type="line"/>
      <point x="180" y="50" type="line"/>
      <point x="180" y="240" type="line"/>
      <point x="226" y="279" type="line"/>
      <point x="300" y="50" type="line"/>
      <point x="253" y="50" type="line"/>
      <point x="250" y="0" type="line"/>
      <point x="500" y="0" type="line"/>
      <point x="500" y="50" type="line"/>
      <point x="440" y="50" type="line"/>
      <point x="336" y="371" type="line"/>
      <point x="430" y="440" type="line"/>
      <point x="500" y="440" type="line"/>
      <point x="500" y="490" type="line"/>
      <point x="270" y="490" type="line"/>
      <point x="270" y="440" type="line"/>
      <point x="350" y="440" type="line"/>
      <point x="294" y="392"/>
      <point x="237" y="357"/>
      <point x="180" y="310" type="curve"/>
      <point x="180" y="700" type="line"/>
      <point x="0" y="700" type="line"/>
      <point x="0" y="650" type="line"/>
      <point x="50" y="650" type="line"/>
      <point x="50" y="50" type="line"/>
      <point x="0" y="50" type="line"/>
    </contour>
  </outline>
</glyph>
<glyph name="l" format="2">
  <advance width="274"/>
  <unicode hex="006C"/>
  <outline>
    <contour>
      <point x="0" y="0" type="line"/>
      <point x="250" y="0" type="line"/>
      <point x="250" y="50" type="line"/>
      <point x="200" y="50" type="line"/>
      <point x="200" y="700" type="line"/>
      <point x="0" y="700" type="line"/>
      <point x="0" y="650" type="line"/>
      <point x="50" y="650" type="line"/>
      <point x="50" y="50" type="line"/>
      <point x="0" y="50" type="line"/>
    </contour>
  </outline>
  <guideline angle="0" x="0" y="490"/>
</glyph>
<glyph name="m" format="2">
  <advance width="824"/>
  <unicode hex="006D"/>
  <outline>
    <contour>
      <point x="0" y="0" type="line"/>
      <point x="249" y="0" type="line"/>
      <point x="252" y="50" type="line"/>
      <point x="200" y="50" type="line"/>
      <point x="200" y="360" type="line" smooth="yes"/>
      <point x="200" y="395"/>
      <point x="228" y="440"/>
      <point x="267" y="440" type="curve" smooth="yes"/>
      <point x="297" y="440"/>
      <point x="325" y="412"/>
      <point x="325" y="377" type="curve" smooth="yes"/>
      <point x="325" y="50" type="line"/>
      <point x="275" y="50" type="line"/>
      <point x="275" y="0" type="line"/>
      <point x="524" y="0" type="line"/>
      <point x="527" y="50" type="line"/>
      <point x="475" y="50" type="line"/>
      <point x="475" y="360" type="line" smooth="yes"/>
      <point x="475" y="389"/>
      <point x="494" y="425"/>
      <point x="521" y="436" type="curve"/>
      <point x="526" y="439"/>
      <point x="532" y="440"/>
      <point x="538" y="440" type="curve" smooth="yes"/>
      <point x="572" y="440"/>
      <point x="600" y="412"/>
      <point x="600" y="377" type="curve" smooth="yes"/>
      <point x="600" y="50" type="line"/>
      <point x="550" y="50" type="line"/>
      <point x="550" y="0" type="line"/>
      <point x="800" y="0" type="line"/>
      <point x="800" y="50" type="line"/>
      <point x="750" y="50" type="line"/>
      <point x="750" y="360" type="line" smooth="yes"/>
      <point x="750" y="444"/>
      <point x="695" y="510"/>
      <point x="606" y="510" type="curve" smooth="yes"/>
      <point x="591" y="510"/>
      <point x="570" y="508"/>
      <point x="558" y="506" type="curve" smooth="yes"/>
      <point x="522" y="500"/>
      <point x="497" y="482"/>
      <point x="475" y="471" type="curve"/>
      <point x="439" y="490"/>
      <point x="393" y="510"/>
      <point x="334" y="510" type="curve" smooth="yes"/>
      <point x="316" y="510"/>
      <point x="295" y="508"/>
      <point x="283" y="506" type="curve" smooth="yes"/>
      <point x="246" y="500"/>
      <point x="221" y="482"/>
      <point x="200" y="471" type="curve"/>
      <point x="200" y="500" type="line"/>
      <point x="0" y="500" type="line"/>
      <point x="0" y="450" type="line"/>
      <point x="50" y="450" type="line"/>
      <point x="50" y="50" type="line"/>
      <point x="0" y="50" type="line"/>
    </contour>
  </outline>
</glyph>
<glyph name="n" format="2">
  <advance width="549"/>
  <unicode hex="006E"/>
  <outline>
    <contour>
      <point x="0" y="50" type="line"/>
      <point x="0" y="0" type="line"/>
      <point x="249" y="0" type="line"/>
      <point x="252" y="50" type="line"/>
      <point x="200" y="50" type="line"/>
      <point x="200" y="360" type="line" smooth="yes"/>
      <point x="200" y="389"/>
      <point x="212" y="425"/>
      <point x="246" y="436" type="curve"/>
      <point x="251" y="439"/>
      <point x="257" y="439"/>
      <point x="263" y="440" type="curve" smooth="yes"/>
      <point x="305" y="444"/>
      <point x="325" y="412"/>
      <point x="325" y="377" type="curve" smooth="yes"/>
      <point x="325" y="50" type="line"/>
      <point x="275" y="50" type="line"/>
      <point x="275" y="0" type="line"/>
      <point x="525" y="0" type="line"/>
      <point x="525" y="50" type="line"/>
      <point x="475" y="50" type="line"/>
      <point x="475" y="360" type="line" smooth="yes"/>
      <point x="475" y="444"/>
      <point x="420" y="510"/>
      <point x="331" y="510" type="curve" smooth="yes"/>
      <point x="316" y="510"/>
      <point x="295" y="508"/>
      <point x="283" y="506" type="curve" smooth="yes"/>
      <point x="247" y="500"/>
      <point x="222" y="482"/>
      <point x="200" y="471" type="curve"/>
      <point x="200" y="500" type="line"/>
      <point x="0" y="500" type="line"/>
      <point x="0" y="450" type="line"/>
      <point x="50" y="450" type="line"/>
      <point x="50" y="50" type="line"/>
    </contour>
  </outline>
  <guideline angle="90" x="50" y="0"/>
  <guideline angle="90" x="200" y="0"/>
  <guideline angle="90" x="325" y="0"/>
  <guideline angle="90" x="475" y="0"/>
</glyph>
<glyph name="o" format="2">
  <advance width="490"/>
  <unicode hex="006F"/>
  <guideline x="20" y="490" angle="0"/>
  <outline>
    <contour>
      <point x="20" y="245" type="curve" smooth="yes"/>
      <point x="20" y="88"/>
      <point x="106" y="-10"/>
      <point x="243" y="-10" type="curve" smooth="yes"/>
      <point x="382" y="-10"/>
      <point x="470" y="88"/>
      <point x="470" y="245" type="curve" smooth="yes"/>
      <point x="470" y="402"/>
      <point x="382" y="500"/>
      <point x="243" y="500" type="curve" smooth="yes"/>
      <point x="106" y="500"/>
      <point x="20" y="402"/>
    </contour>
    <contour>
      <point x="168" y="375" type="line" smooth="yes"/>
      <point x="168" y="421"/>
      <point x="197" y="450"/>
      <point x="243" y="450" type="curve" smooth="yes"/>
      <point x="289" y="450"/>
      <point x="318" y="421"/>
      <point x="318" y="375" type="curve" smooth="yes"/>
      <point x="318" y="115" type="line" smooth="yes"/>
      <point x="318" y="69"/>
      <point x="289" y="40"/>
      <point x="243" y="40" type="curve" smooth="yes"/>
      <point x="197" y="40"/>
      <point x="168" y="69"/>
      <point x="168" y="115" type="curve" smooth="yes"/>
    </contour>
  </outline>
</glyph>
<glyph name="p" format="2">
  <advance width="504"/>
  <unicode hex="0070"/>
  <outline>
    <contour>
      <point x="0" y="-250" type="line"/>
      <point x="260" y="-250" type="line"/>
      <point x="260" y="-200" type="line"/>
      <point x="200" y="-200" type="line"/>
      <point x="200" y="16" type="line"/>
      <point x="227" y="-11"/>
      <point x="262" y="-30"/>
      <point x="300" y="-30" type="curve" smooth="yes"/>
      <point x="426" y="-30"/>
      <point x="480" y="138"/>
      <point x="480" y="240" type="curve" smooth="yes"/>
      <point x="480" y="342"/>
      <point x="439" y="510"/>
      <point x="300" y="510" type="curve" smooth="yes"/>
      <point x="239" y="510"/>
      <point x="227" y="491"/>
      <point x="200" y="464" type="curve"/>
      <point x="200" y="500" type="line"/>
      <point x="0" y="500" type="line"/>
      <point x="0" y="450" type="line"/>
      <point x="60" y="450" type="line"/>
      <point x="60" y="-200" type="line"/>
      <point x="0" y="-200" type="line"/>
    </contour>
    <contour>
      <point x="200" y="360" type="line" smooth="yes"/>
      <point x="200" y="393"/>
      <point x="226" y="440"/>
      <point x="263" y="440" type="curve" smooth="yes"/>
      <point x="297" y="440"/>
      <point x="325" y="411"/>
      <point x="325" y="377" type="curve" smooth="yes"/>
      <point x="325" y="103" type="line" smooth="yes"/>
      <point x="325" y="69"/>
      <point x="297" y="40"/>
      <point x="263" y="40" type="curve" smooth="yes"/>
      <point x="226" y="40"/>
      <point x="200" y="87"/>
      <point x="200" y="120" type="curve" smooth="yes"/>
    </contour>
  </outline>
</glyph>
<glyph name="q" format="2">
  <advance width="504"/>
  <unicode hex="0071"/>
  <outline>
    <contour>
      <point x="220" y="-250" type="line"/>
      <point x="480" y="-250" type="line"/>
      <point x="480" y="-200" type="line"/>
      <point x="420" y="-200" type="line"/>
      <point x="420" y="450" type="line"/>
      <point x="480" y="450" type="line"/>
      <point x="480" y="500" type="line"/>
      <point x="280" y="500" type="line"/>
      <point x="280" y="464" type="line"/>
      <point x="253" y="491"/>
      <point x="218" y="510"/>
      <point x="180" y="510" type="curve" smooth="yes"/>
      <point x="54" y="510"/>
      <point x="0" y="342"/>
      <point x="0" y="240" type="curve" smooth="yes"/>
      <point x="0" y="138"/>
      <point x="54" y="-30"/>
      <point x="180" y="-30" type="curve" smooth="yes"/>
      <point x="218" y="-30"/>
      <point x="253" y="-11"/>
      <point x="280" y="16" type="curve"/>
      <point x="280" y="-200" type="line"/>
      <point x="220" y="-200" type="line"/>
    </contour>
    <contour>
      <point x="280" y="120" type="line" smooth="yes"/>
      <point x="280" y="87"/>
      <point x="254" y="40"/>
      <point x="217" y="40" type="curve" smooth="yes"/>
      <point x="183" y="40"/>
      <point x="155" y="69"/>
      <point x="155" y="103" type="curve" smooth="yes"/>
      <point x="155" y="377" type="line" smooth="yes"/>
      <point x="155" y="411"/>
      <point x="183" y="440"/>
      <point x="217" y="440" type="curve" smooth="yes"/>
      <point x="254" y="440"/>
      <point x="280" y="393"/>
      <point x="280" y="360" type="curve" smooth="yes"/>
    </contour>
  </outline>
</glyph>
<glyph name="r" format="2">
  <advance width="484"/>
  <unicode hex="0072"/>
  <outline>
    <contour>
      <point x="0" y="0" type="line"/>
      <point x="260" y="0" type="line"/>
      <point x="260" y="50" type="line"/>
      <point x="200" y="50" type="line"/>
      <point x="200" y="360" type="line" smooth="yes"/>
      <point x="200" y="393"/>
      <point x="226" y="440"/>
      <point x="263" y="440" type="curve" smooth="yes"/>
      <point x="336" y="440"/>
      <point x="325" y="358"/>
      <point x="325" y="310" type="curve"/>
      <point x="460" y="310" type="line"/>
      <point x="460" y="397"/>
      <point x="399" y="510"/>
      <point x="300" y="510" type="curve" smooth="yes"/>
      <point x="261" y="510"/>
      <point x="227" y="491"/>
      <point x="200" y="464" type="curve"/>
      <point x="200" y="500" type="line"/>
      <point x="0" y="500" type="line"/>
      <point x="0" y="450" type="line"/>
      <point x="60" y="450" type="line"/>
      <point x="60" y="50" type="line"/>
      <point x="0" y="50" type="line"/>
    </contour>
  </outline>
</glyph>
<glyph name="s" format="2">
  <advance width="434"/>
  <unicode hex="0073"/>
  <outline>
    <contour>
      <point x="0" y="0" type="line"/>
      <point x="50" y="0" type="line"/>
      <point x="50" y="40" type="line"/>
      <point x="98" y="7"/>
      <point x="175" y="0"/>
      <point x="240" y="0" type="curve" smooth="yes"/>
      <point x="306" y="0"/>
      <point x="410" y="14"/>
      <point x="410" y="127" type="curve" smooth="yes"/>
      <point x="410" y="325"/>
      <point x="140" y="278"/>
      <point x="140" y="401" type="curve" smooth="yes"/>
      <point x="140" y="448"/>
      <point x="191" y="456"/>
      <point x="227" y="452" type="curve" smooth="yes"/>
      <point x="275" y="447"/>
      <point x="339" y="417"/>
      <point x="350" y="320" type="curve"/>
      <point x="400" y="320" type="line"/>
      <point x="400" y="510" type="line"/>
      <point x="350" y="510" type="line"/>
      <point x="350" y="470" type="line"/>
      <point x="327" y="490"/>
      <point x="280" y="511"/>
      <point x="205" y="510" type="curve"/>
      <point x="137" y="511"/>
      <point x="12" y="477"/>
      <point x="10" y="380" type="curve" smooth="yes"/>
      <point x="7" y="220"/>
      <point x="295" y="211"/>
      <point x="295" y="118" type="curve" smooth="yes"/>
      <point x="295" y="66"/>
      <point x="254" y="57"/>
      <point x="221" y="58" type="curve" smooth="yes"/>
      <point x="181" y="59"/>
      <point x="50" y="98"/>
      <point x="50" y="190" type="curve"/>
      <point x="0" y="190" type="line"/>
    </contour>
  </outline>
</glyph>
<glyph name="t" format="2">
  <advance width="313"/>
  <unicode hex="0074"/>
  <outline>
    <contour>
      <point x="60" y="70" type="line" smooth="yes"/>
      <point x="60" y="31"/>
      <point x="91" y="0"/>
      <point x="129" y="0" type="curve" smooth="yes"/>
      <point x="219" y="0" type="line" smooth="yes"/>
      <point x="258" y="0"/>
      <point x="289" y="31"/>
      <point x="289" y="70" type="curve" smooth="yes"/>
      <point x="289" y="140" type="line"/>
      <point x="249" y="140" type="line"/>
      <point x="249" y="119"/>
      <point x="254" y="70"/>
      <point x="225" y="70" type="curve" smooth="yes"/>
      <point x="207" y="70"/>
      <point x="199" y="81"/>
      <point x="199" y="95" type="curve" smooth="yes"/>
      <point x="199" y="425" type="line"/>
      <point x="269" y="425" type="line"/>
      <point x="269" y="490" type="line"/>
      <point x="199" y="491" type="line"/>
      <point x="199" y="698" type="line"/>
      <point x="60" y="698" type="line"/>
      <point x="60" y="490" type="line"/>
      <point x="0" y="490" type="line"/>
      <point x="0" y="425" type="line"/>
      <point x="60" y="425" type="line"/>
    </contour>
  </outline>
</glyph>
<glyph name="u" format="2">
  <advance width="524"/>
  <unicode hex="0075"/>
  <outline>
    <contour>
      <point x="40" y="137" type="line" smooth="yes"/>
      <point x="40" y="62"/>
      <point x="112" y="0"/>
      <point x="187" y="0" type="curve" smooth="yes"/>
      <point x="236" y="0"/>
      <point x="272" y="25"/>
      <point x="305" y="59" type="curve"/>
      <point x="305" y="0" type="line"/>
      <point x="500" y="0" type="line"/>
      <point x="500" y="50" type="line"/>
      <point x="440" y="50" type="line"/>
      <point x="440" y="490" type="line"/>
      <point x="253" y="490" type="line"/>
      <point x="253" y="440" type="line"/>
      <point x="305" y="440" type="line"/>
      <point x="305" y="167" type="line" smooth="yes"/>
      <point x="305" y="128"/>
      <point x="280" y="69"/>
      <point x="225" y="69" type="curve" smooth="yes"/>
      <point x="203" y="69"/>
      <point x="180" y="87"/>
      <point x="180" y="121" type="curve" smooth="yes"/>
      <point x="180" y="490" type="line"/>
      <point x="0" y="490" type="line"/>
      <point x="0" y="440" type="line"/>
      <point x="40" y="440" type="line"/>
    </contour>
  </outline>
</glyph>
<glyph name="v" format="2">
  <advance width="534"/>
  <unicode hex="0076"/>
  <outline>
    <contour>
      <point x="178" y="0" type="line"/>
      <point x="307" y="0" type="line"/>
      <point x="433" y="440" type="line"/>
      <point x="510" y="440" type="line"/>
      <point x="510" y="490" type="line"/>
      <point x="320" y="490" type="line"/>
      <point x="320" y="440" type="line"/>
      <point x="369" y="440" type="line"/>
      <point x="275" y="112" type="line"/>
      <point x="180" y="440" type="line"/>
      <point x="250" y="440" type="line"/>
      <point x="250" y="490" type="line"/>
      <point x="0" y="490" type="line"/>
      <point x="0" y="440" type="line"/>
      <point x="45" y="440" type="line"/>
    </contour>
  </outline>
</glyph>
<glyph name="w" format="2">
  <advance width="834"/>
  <unicode hex="0077"/>
  <outline>
    <contour>
      <point x="180" y="0" type="line"/>
      <point x="320" y="0" type="line"/>
      <point x="404" y="271" type="line"/>
      <point x="480" y="0" type="line"/>
      <point x="620" y="0" type="line"/>
      <point x="745" y="440" type="line"/>
      <point x="810" y="440" type="line"/>
      <point x="810" y="490" type="line"/>
      <point x="620" y="490" type="line"/>
      <point x="620" y="440" type="line"/>
      <point x="685" y="440" type="line"/>
      <point x="595" y="88" type="line"/>
      <point x="505" y="440" type="line"/>
      <point x="570" y="440" type="line"/>
      <point x="570" y="490" type="line"/>
      <point x="320" y="490" type="line"/>
      <point x="320" y="440" type="line"/>
      <point x="385" y="440" type="line"/>
      <point x="295" y="88" type="line"/>
      <point x="205" y="440" type="line"/>
      <point x="270" y="440" type="line"/>
      <point x="270" y="490" type="line"/>
      <point x="0" y="490" type="line"/>
      <point x="0" y="440" type="line"/>
      <point x="65" y="440" type="line"/>
    </contour>
  </outline>
</glyph>
<glyph name="x" format="2">
  <advance width="524"/>
  <unicode hex="0078"/>
  <guideline y="490"/>
  <outline>
    <contour>
      <point x="283" y="334" type="move"/>
      <point x="220" y="440" type="line"/>
      <point x="280" y="440" type="line"/>
      <point x="280" y="490" type="line"/>
      <point x="0" y="490" type="line"/>
      <point x="0" y="440" type="line"/>
      <point x="50" y="440" type="line"/>
      <point x="184" y="213" type="line"/>
    </contour>
    <contour>
      <point x="450" y="440" type="move"/>
      <point x="500" y="440" type="line"/>
      <point x="500" y="490" type="line"/>
      <point x="310" y="490" type="line"/>
      <point x="310" y="440" type="line"/>
      <point x="370" y="440" type="line"/>
    </contour>
    <contour>
      <point x="217" y="156" type="move"/>
      <point x="280" y="50" type="line"/>
      <point x="220" y="50" type="line"/>
      <point x="220" y="0" type="line"/>
      <point x="500" y="0" type="line"/>
      <point x="500" y="50" type="line"/>
      <point x="450" y="50" type="line"/>
      <point x="316" y="277" type="line"/>
    </contour>
    <contour>
      <point x="50" y="50" type="move"/>
      <point x="0" y="50" type="line"/>
      <point x="0" y="0" type="line"/>
      <point x="190" y="0" type="line"/>
      <point x="190" y="50" type="line"/>
      <point x="130" y="50" type="line"/>
    </contour>
  </outline>
</glyph>
<glyph name="y" format="2">
  <advance width="534"/>
  <unicode hex="0079"/>
  <outline>
    <contour>
      <point x="110" y="-52" type="line"/>
      <point x="110" y="-88"/>
      <point x="110" y="-147"/>
      <point x="160" y="-147" type="curve" smooth="yes"/>
      <point x="180" y="-147"/>
      <point x="205" y="-138"/>
      <point x="205" y="-114" type="curve" smooth="yes"/>
      <point x="205" y="-59"/>
      <point x="74" y="358"/>
      <point x="50" y="440" type="curve"/>
      <point x="0" y="440" type="line"/>
      <point x="0" y="490" type="line"/>
      <point x="260" y="490" type="line"/>
      <point x="260" y="440" type="line"/>
      <point x="191" y="440" type="line"/>
      <point x="279" y="138" type="line"/>
      <point x="360" y="441" type="line"/>
      <point x="307" y="441" type="line"/>
      <point x="310" y="490" type="line"/>
      <point x="510" y="490" type="line"/>
      <point x="510" y="440" type="line"/>
      <point x="430" y="440" type="line"/>
      <point x="316" y="13" type="line"/>
      <point x="282" y="-112" type="line" smooth="yes"/>
      <point x="274" y="-140"/>
      <point x="243" y="-215"/>
      <point x="170" y="-215" type="curve" smooth="yes"/>
      <point x="70" y="-215"/>
      <point x="40" y="-140"/>
      <point x="40" y="-52" type="curve"/>
    </contour>
  </outline>
  <guideline angle="0" x="0" y="490"/>
</glyph>
<glyph name="z" format="2">
  <advance width="414"/>
  <unicode hex="007A"/>
  <outline>
    <contour>
      <point x="0" y="59" type="line"/>
      <point x="0" y="0" type="line"/>
      <point x="390" y="0" type="line"/>
      <point x="390" y="170" type="line"/>
      <point x="330" y="170" type="line"/>
      <point x="330" y="59" type="line"/>
      <point x="160" y="59" type="line"/>
      <point x="390" y="431" type="line"/>
      <point x="390" y="490" type="line"/>
      <point x="0" y="490" type="line"/>
      <point x="0" y="330" type="line"/>
      <point x="70" y="330" type="line"/>
      <point x="70" y="431" type="line"/>
      <point x="230" y="431" type="line"/>
    </contour>
  </outline>
</glyph>
<glyph name="Agrave" format="2">
  <advance width="698"/>
  <unicode hex="00C0"/>
  <outline>
    <component base="A"/>
    <contour>
      <point x="259" y="839" type="line"/>
      <point x="258" y="840"/>
      <point x="257" y="840"/>
      <point x="257" y="841" type="curve"/>
      <point x="231" y="870"/>
      <point x="208" y="900"/>
      <point x="180" y="938" type="curve" smooth="yes"/>
      <point x="176" y="944"/>
      <point x="176" y="947"/>
      <point x="176" y="951" type="curve"/>
      <point x="220" y="946"/>
      <point x="249" y="945"/>
      <point x="296" y="946" type="curve"/>
      <point x="328" y="869"/>
      <point x="359" y="822"/>
      <point x="421" y="751" type="curve"/>
      <point x="346" y="751" type="line"/>
      <point x="314" y="781"/>
      <point x="289" y="806"/>
      <point x="266" y="831" type="curve"/>
      <point x="265" y="832"/>
      <point x="265" y="832"/>
      <point x="264" y="833" type="curve"/>
    </contour>
  </outline>
</glyph>
<glyph name="Ccedilla" format="2">
  <advance width="568"/>
  <unicode hex="00C7"/>
  <outline>
    <component base="C"/>
    <contour>
      <point x="238" y="-61" type="line"/>
      <point x="277" y="26" type="line"/>
      <point x="313" y="29" type="line"/>
      <point x="283" y="-34" type="line"/>
      <point x="297" y="-28"/>
      <point x="298" y="-25"/>
      <point x="324" y="-21" type="curve"/>
      <point x="358" y="-13"/>
      <point x="405" y="-30"/>
      <point x="379" y="-85" type="curve"/>
      <point x="357" y="-133"/>
      <point x="331" y="-144"/>
      <point x="321" y="-147" type="curve"/>
      <point x="309" y="-153"/>
      <point x="241" y="-157"/>
      <point x="223" y="-147" type="curve" smooth="yes"/>
      <point x="205" y="-138"/>
      <point x="202" y="-130"/>
      <point x="205" y="-112" type="curve"/>
      <point x="207" y="-106"/>
      <point x="211" y="-99"/>
      <point x="214" y="-93" type="curve"/>
      <point x="223" y="-85"/>
      <point x="223" y="-81"/>
      <point x="229" y="-76" type="curve"/>
      <point x="276" y="-76" type="line"/>
      <point x="265" y="-97"/>
      <point x="249" y="-132"/>
      <point x="279" y="-129" type="curve"/>
      <point x="298" y="-126"/>
      <point x="313" y="-103"/>
      <point x="321" y="-84" type="curve"/>
      <point x="330" y="-64"/>
      <point x="328" y="-46"/>
      <point x="307" y="-48" type="curve" smooth="yes"/>
      <point x="300" y="-49"/>
      <point x="288" y="-51"/>
      <point x="271" y="-61" type="curve"/>
    </contour>
  </outline>
</glyph>
<glyph name="Egrave" format="2">
  <advance width="656"/>
  <unicode hex="00C8"/>
  <outline>
    <component base="E"/>
    <contour>
      <point x="263" y="833" type="line"/>
      <point x="264" y="832"/>
      <point x="264" y="832"/>
      <point x="265" y="831" type="curve"/>
      <point x="288" y="806"/>
      <point x="313" y="781"/>
      <point x="345" y="751" type="curve"/>
      <point x="420" y="751" type="line"/>
      <point x="358" y="822"/>
      <point x="327" y="869"/>
      <point x="295" y="946" type="curve"/>
      <point x="248" y="945"/>
      <point x="219" y="946"/>
      <point x="175" y="951" type="curve"/>
      <point x="175" y="947"/>
      <point x="175" y="944"/>
      <point x="179" y="938" type="curve" smooth="yes"/>
      <point x="207" y="900"/>
      <point x="230" y="870"/>
      <point x="256" y="841" type="curve"/>
      <point x="256" y="840"/>
      <point x="257" y="840"/>
      <point x="258" y="839" type="curve"/>
    </contour>
  </outline>
</glyph>
<glyph name="Ugrave" format="2">
  <advance width="674"/>
  <unicode hex="00D9"/>
  <outline>
    <component base="U"/>
    <contour>
      <point x="264" y="833" type="line"/>
      <point x="265" y="832"/>
      <point x="265" y="832"/>
      <point x="266" y="831" type="curve"/>
      <point x="289" y="806"/>
      <point x="314" y="781"/>
      <point x="346" y="751" type="curve"/>
      <point x="421" y="751" type="line"/>
      <point x="359" y="822"/>
      <point x="328" y="869"/>
      <point x="296" y="946" type="curve"/>
      <point x="249" y="945"/>
      <point x="220" y="946"/>
      <point x="176" y="951" type="curve"/>
      <point x="176" y="947"/>
      <point x="176" y="944"/>
      <point x="180" y="938" type="curve" smooth="yes"/>
      <point x="208" y="900"/>
      <point x="231" y="870"/>
      <point x="257" y="841" type="curve"/>
      <point x="257" y="840"/>
      <point x="258" y="840"/>
      <point x="259" y="839" type="curve"/>
    </contour>
  </outline>
</glyph>
<glyph name="ccedilla" format="2">
  <advance width="448"/>
  <unicode hex="00E7"/>
  <outline>
    <component base="c"/>
    <contour>
      <point x="177" y="-55" type="line"/>
      <point x="174" y="-59"/>
      <point x="173" y="-62"/>
      <point x="168" y="-67" type="curve"/>
      <point x="166" y="-71"/>
      <point x="163" y="-76"/>
      <point x="162" y="-80" type="curve" smooth="yes"/>
      <point x="159" y="-91"/>
      <point x="162" y="-97"/>
      <point x="174" y="-103" type="curve" smooth="yes"/>
      <point x="186" y="-110"/>
      <point x="231" y="-106"/>
      <point x="239" y="-103" type="curve"/>
      <point x="245" y="-100"/>
      <point x="262" y="-94"/>
      <point x="278" y="-62" type="curve"/>
      <point x="295" y="-25"/>
      <point x="264" y="-14"/>
      <point x="241" y="-19" type="curve" smooth="yes"/>
      <point x="223" y="-22"/>
      <point x="223" y="-24"/>
      <point x="214" y="-28" type="curve"/>
      <point x="234" y="14" type="line"/>
      <point x="210" y="12" type="line"/>
      <point x="184" y="-46" type="line"/>
      <point x="206" y="-46" type="line"/>
      <point x="216" y="-39"/>
      <point x="225" y="-38"/>
      <point x="229" y="-37" type="curve"/>
      <point x="243" y="-36"/>
      <point x="244" y="-48"/>
      <point x="239" y="-61" type="curve"/>
      <point x="233" y="-73"/>
      <point x="223" y="-89"/>
      <point x="211" y="-91" type="curve" smooth="yes"/>
      <point x="190" y="-94"/>
      <point x="202" y="-69"/>
      <point x="208" y="-55" type="curve"/>
    </contour>
  </outline>
</glyph>
<glyph name="egrave" format="2">
  <advance width="445"/>
  <unicode hex="00E8"/>
  <outline>
    <component base="e"/>
    <contour>
      <point x="171" y="639" type="line"/>
      <point x="170" y="640"/>
      <point x="169" y="640"/>
      <point x="169" y="641" type="curve"/>
      <point x="143" y="670"/>
      <point x="120" y="700"/>
      <point x="92" y="738" type="curve" smooth="yes"/>
      <point x="88" y="744"/>
      <point x="88" y="747"/>
      <point x="88" y="751" type="curve"/>
      <point x="132" y="746"/>
      <point x="161" y="745"/>
      <point x="208" y="746" type="curve"/>
      <point x="240" y="669"/>
      <point x="271" y="622"/>
      <point x="333" y="551" type="curve"/>
      <point x="258" y="551" type="line"/>
      <point x="226" y="581"/>
      <point x="201" y="606"/>
      <point x="178" y="631" type="curve"/>
      <point x="177" y="632"/>
      <point x="177" y="632"/>
      <point x="176" y="633" type="curve"/>
    </contour>
  </outline>
</glyph>
<glyph name="eacute" format="2">
  <advance width="445"/>
  <unicode hex="00E9"/>
  <outline>
    <component base="e"/>
    <contour>
      <point x="246" y="633" type="line"/>
      <point x="245" y="632"/>
      <point x="244" y="632"/>
      <point x="243" y="631" type="curve"/>
      <point x="221" y="606"/>
      <point x="196" y="581"/>
      <point x="163" y="551" type="curve"/>
      <point x="88" y="551" type="line"/>
      <point x="150" y="622"/>
      <point x="182" y="669"/>
      <point x="213" y="746" type="curve"/>
      <point x="260" y="745"/>
      <point x="289" y="746"/>
      <point x="333" y="751" type="curve"/>
      <point x="333" y="747"/>
      <point x="334" y="744"/>
      <point x="330" y="738" type="curve" smooth="yes"/>
      <point x="302" y="700"/>
      <point x="279" y="670"/>
      <point x="253" y="641" type="curve"/>
      <point x="252" y="640"/>
      <point x="251" y="640"/>
      <point x="250" y="639" type="curve"/>
    </contour>
  </outline>
</glyph>
<glyph name="quotedblleft" format="2">
  <advance width="359"/>
  <unicode hex="201C"/>
  <outline>
    <contour>
      <point x="202" y="798" type="line" smooth="yes"/>
      <point x="217" y="816"/>
      <point x="183" y="788"/>
      <point x="184" y="789" type="curve"/>
      <point x="210" y="818"/>
      <point x="234" y="847"/>
      <point x="262" y="886" type="curve" smooth="yes"/>
      <point x="266" y="891"/>
      <point x="263" y="895"/>
      <point x="263" y="900" type="curve"/>
      <point x="219" y="895"/>
      <point x="162" y="938"/>
      <point x="143" y="895" type="curve"/>
      <point x="112" y="817"/>
      <point x="80" y="771"/>
      <point x="18" y="700" type="curve"/>
      <point x="93" y="700" type="line"/>
      <point x="126" y="730"/>
      <point x="152" y="754"/>
      <point x="175" y="778" type="curve" smooth="yes"/>
      <point x="177" y="780"/>
      <point x="181" y="773"/>
      <point x="196" y="791" type="curve" smooth="yes"/>
    </contour>
    <contour>
      <point x="369" y="798" type="line" smooth="yes"/>
      <point x="384" y="816"/>
      <point x="350" y="788"/>
      <point x="351" y="789" type="curve"/>
      <point x="377" y="818"/>
      <point x="401" y="847"/>
      <point x="429" y="886" type="curve" smooth="yes"/>
      <point x="433" y="891"/>
      <point x="430" y="895"/>
      <point x="430" y="900" type="curve"/>
      <point x="386" y="895"/>
      <point x="329" y="938"/>
      <point x="310" y="895" type="curve"/>
      <point x="279" y="817"/>
      <point x="247" y="771"/>
      <point x="185" y="700" type="curve"/>
      <point x="260" y="700" type="line"/>
      <point x="293" y="730"/>
      <point x="319" y="754"/>
      <point x="342" y="778" type="curve" smooth="yes"/>
      <point x="344" y="780"/>
      <point x="348" y="773"/>
      <point x="363" y="791" type="curve" smooth="yes"/>
    </contour>
  </outline>
</glyph>
<glyph name="quotedblright" format="2">
  <advance width="359"/>
  <unicode hex="201D"/>
  <outline>
    <contour>
      <point x="196" y="847" type="line" smooth="yes"/>
      <point x="181" y="865"/>
      <point x="177" y="858"/>
      <point x="175" y="860" type="curve" smooth="yes"/>
      <point x="152" y="884"/>
      <point x="126" y="908"/>
      <point x="93" y="938" type="curve"/>
      <point x="18" y="938" type="line"/>
      <point x="80" y="867"/>
      <point x="112" y="821"/>
      <point x="143" y="743" type="curve"/>
      <point x="162" y="700"/>
      <point x="219" y="743"/>
      <point x="263" y="738" type="curve"/>
      <point x="263" y="743"/>
      <point x="266" y="747"/>
      <point x="262" y="752" type="curve" smooth="yes"/>
      <point x="234" y="791"/>
      <point x="210" y="820"/>
      <point x="184" y="849" type="curve"/>
      <point x="183" y="850"/>
      <point x="217" y="822"/>
      <point x="202" y="840" type="curve" smooth="yes"/>
    </contour>
    <contour>
      <point x="363" y="847" type="line" smooth="yes"/>
      <point x="348" y="865"/>
      <point x="344" y="858"/>
      <point x="342" y="860" type="curve" smooth="yes"/>
      <point x="319" y="884"/>
      <point x="293" y="908"/>
      <point x="260" y="938" type="curve"/>
      <point x="185" y="938" type="line"/>
      <point x="247" y="867"/>
      <point x="279" y="821"/>
      <point x="310" y="743" type="curve"/>
      <point x="329" y="700"/>
      <point x="386" y="743"/>
      <point x="430" y="738" type="curve"/>
      <point x="430" y="743"/>
      <point x="433" y="747"/>
      <point x="429" y="752" type="curve" smooth="yes"/>
      <point x="401" y="791"/>
      <point x="377" y="820"/>
      <point x="351" y="849" type="curve"/>
      <point x="350" y="850"/>
      <point x="384" y="822"/>
      <point x="369" y="840" type="curve" smooth="yes"/>
    </contour>
  </outline>
</glyph>
<glyph name="Euro" format="2">
  <advance width="632"/>
  <unicode hex="20AC"/>
  <outline>
    <contour>
      <point x="45" y="265" type="line"/>
      <point x="45" y="317" type="line"/>
      <point x="451" y="317" type="line"/>
      <point x="451" y="264" type="line"/>
    </contour>
    <contour>
      <point x="45" y="390" type="line"/>
      <point x="45" y="442" type="line"/>
      <point x="482" y="442" type="line"/>
      <point x="482" y="389" type="line"/>
    </contour>
    <contour>
      <point x="563" y="2" type="line"/>
      <point x="563" y="55" type="line"/>
      <point x="521" y="29"/>
      <point x="518" y="22"/>
      <point x="423" y="6" type="curve" smooth="yes"/>
      <point x="324" y="-10"/>
      <point x="258" y="17"/>
      <point x="181" y="77" type="curve"/>
      <point x="127" y="147"/>
      <point x="109" y="168"/>
      <point x="96" y="310" type="curve" smooth="yes"/>
      <point x="85" y="431"/>
      <point x="115" y="554"/>
      <point x="146" y="598" type="curve" smooth="yes"/>
      <point x="179" y="645"/>
      <point x="209" y="682"/>
      <point x="293" y="704" type="curve" smooth="yes"/>
      <point x="357" y="721"/>
      <point x="434" y="712"/>
      <point x="479" y="693" type="curve" smooth="yes"/>
      <point x="521" y="675"/>
      <point x="526" y="668"/>
      <point x="548" y="653" type="curve"/>
      <point x="548" y="702" type="line"/>
      <point x="623" y="702" type="line"/>
      <point x="623" y="442" type="line"/>
      <point x="553" y="442" type="line"/>
      <point x="553" y="460"/>
      <point x="551" y="473"/>
      <point x="549" y="489" type="curve" smooth="yes"/>
      <point x="547" y="505"/>
      <point x="544" y="548"/>
      <point x="511" y="587" type="curve" smooth="yes"/>
      <point x="490" y="612"/>
      <point x="445" y="646"/>
      <point x="380" y="623" type="curve" smooth="yes"/>
      <point x="327" y="604"/>
      <point x="313" y="566"/>
      <point x="303" y="516" type="curve" smooth="yes"/>
      <point x="293" y="466"/>
      <point x="293" y="422"/>
      <point x="292" y="344" type="curve" smooth="yes"/>
      <point x="291" y="278"/>
      <point x="292" y="247"/>
      <point x="307" y="181" type="curve" smooth="yes"/>
      <point x="318" y="132"/>
      <point x="370" y="77"/>
      <point x="430" y="83" type="curve" smooth="yes"/>
      <point x="535" y="93"/>
      <point x="564" y="179"/>
      <point x="563" y="262" type="curve"/>
      <point x="638" y="262" type="line"/>
      <point x="638" y="2" type="line"/>
    </contour>
  </outline>
</glyph>
